<svg xmlns = "http://www.w3.org/2000/svg" width = "1000" height = "1000">
<g>
<polygon points = "896.663, -2323.060 1439.218, -3552.823 2304.048, -6647.458 1157.910, 0.000 1000.000, 0.000 1000.000, -1776.054 "
fill = "none" stroke = "black"/>
</g>
<g>
<polygon points = ""
fill = "none" stroke = "black"/>
</g>
<g>
<polygon points = "-980.951, -660.892 4441.973, 1627.133 0.000, 703.918 0.000, -91.737 "
fill = "none" stroke = "black"/>
</g>
<g>
<polygon points = "402.914, 737.600 1683.667, 781.424 14799.128, 1000.000 0.000, 1000.000 0.000, 703.918 "
fill = "none" stroke = "black"/>
</g>
<g>
<polygon points = "1959.295, -638.630 1174.113, -1150.789 1441.430, 584.599 1613.551, 789.778 1305.435, -893.991 1550.695, -1139.252 1781.087, -832.359 "
fill = "none" stroke = "black"/>
</g>
<g>
<polygon points = ""
fill = "none" stroke = "black"/>
</g>
<g>
<polygon points = ""
fill = "none" stroke = "black"/>
</g>
<g>
<polygon points = "1386.404, 1000.000 1297.294, 589.882 1270.860, 431.917 1258.944, 351.700 1213.760, 32.002 1229.775, 165.155 1219.681, 83.789 1000.000, -1774.898 1000.000, 1000.000 "
fill = "none" stroke = "black"/>
</g>
<g>
<polygon points = "0.000, 484.608 0.000, 0.000 -529.350, 0.000 "
fill = "none" stroke = "black"/>
</g>
<g>
<polygon points = "1154.020, 442.453 384.543, 0.000 711.567, 0.000 "
fill = "none" stroke = "black"/>
</g>
</svg>
