<svg xmlns = "http://www.w3.org/2000/svg" width = "1000" height = "1000">
<g>
<polygon points = "754.929, 267.453 640.883, 187.748 650.181, 0.000 802.321, 0.000 1000.000, 143.917 1000.000, 168.913 "
fill = "none" stroke = "black"/>
</g>
<g>
<polygon points = "802.321, 0.000 1000.000, 0.000 1000.000, 143.917 "
fill = "none" stroke = "black"/>
</g>
<g>
<polygon points = "548.653, 232.411 480.203, 745.820 276.402, 264.341 314.693, 227.059 "
fill = "none" stroke = "black"/>
</g>
<g>
<polygon points = "487.837, 800.116 516.726, 832.558 522.539, 1000.000 0.000, 1000.000 0.000, 605.339 "
fill = "none" stroke = "black"/>
</g>
<g>
<polygon points = "838.230, 591.534 754.929, 267.453 1000.000, 168.913 1000.000, 594.829 "
fill = "none" stroke = "black"/>
</g>
<g>
<polygon points = "276.402, 264.341 480.203, 745.820 487.837, 800.116 0.000, 605.339 0.000, 348.179 "
fill = "none" stroke = "black"/>
</g>
<g>
<polygon points = "838.230, 591.534 516.726, 832.558 487.837, 800.116 480.203, 745.820 548.653, 232.411 640.883, 187.748 754.929, 267.453 "
fill = "none" stroke = "black"/>
</g>
<g>
<polygon points = "522.539, 1000.000 516.726, 832.558 838.230, 591.534 1000.000, 594.829 1000.000, 1000.000 "
fill = "none" stroke = "black"/>
</g>
<g>
<polygon points = "314.693, 227.059 276.402, 264.341 0.000, 348.179 0.000, 0.000 284.975, 0.000 "
fill = "none" stroke = "black"/>
</g>
<g>
<polygon points = "640.883, 187.748 548.653, 232.411 314.693, 227.059 284.975, 0.000 650.181, 0.000 "
fill = "none" stroke = "black"/>
</g>
</svg>
