<svg xmlns = "http://www.w3.org/2000/svg" width = "1000" height = "1000">
<g>
<polygon points = "887.025, 119.968 855.205, 148.046 793.687, 120.092 791.888, 114.390 823.752, 82.650 882.782, 58.578 915.220, 82.195 "
fill = "none" stroke = "black"/>
</g>
<g>
<polygon points = "915.220, 82.195 882.782, 58.578 848.655, 15.185 841.264, 0.000 1000.000, 0.000 1000.000, 58.348 "
fill = "none" stroke = "black"/>
</g>
<g>
<polygon points = "434.198, 427.199 410.375, 423.630 400.483, 395.649 419.317, 358.222 464.446, 395.243 465.401, 400.696 "
fill = "none" stroke = "black"/>
</g>
<g>
<polygon points = "49.755, 831.125 52.408, 829.707 103.277, 861.328 115.941, 893.182 67.827, 888.594 "
fill = "none" stroke = "black"/>
</g>
<g>
<polygon points = "954.902, 359.466 925.847, 346.561 920.513, 323.239 960.100, 281.170 1000.000, 269.060 1000.000, 291.148 "
fill = "none" stroke = "black"/>
</g>
<g>
<polygon points = "251.702, 506.123 256.422, 451.047 314.565, 438.252 323.699, 458.066 322.142, 486.838 295.690, 507.186 "
fill = "none" stroke = "black"/>
</g>
<g>
<polygon points = "569.468, 454.426 568.438, 378.631 669.121, 401.084 680.353, 444.329 647.479, 505.690 615.998, 500.124 570.911, 458.226 "
fill = "none" stroke = "black"/>
</g>
<g>
<polygon points = "978.408, 883.344 902.139, 926.072 866.297, 861.254 868.338, 825.421 872.279, 822.930 1000.000, 830.221 1000.000, 867.977 "
fill = "none" stroke = "black"/>
</g>
<g>
<polygon points = "170.733, 61.900 187.863, 62.946 183.240, 142.271 180.153, 145.707 153.400, 161.550 128.356, 153.836 104.066, 124.531 148.414, 73.368 "
fill = "none" stroke = "black"/>
</g>
<g>
<polygon points = "479.917, 0.636 437.747, 138.766 380.330, 115.728 439.278, 24.351 "
fill = "none" stroke = "black"/>
</g>
<g>
<polygon points = "379.731, 535.610 378.322, 562.065 284.802, 592.900 295.690, 507.186 322.142, 486.838 "
fill = "none" stroke = "black"/>
</g>
<g>
<polygon points = "785.265, 104.872 711.552, 101.432 709.923, 23.944 724.963, 0.000 757.042, 0.000 "
fill = "none" stroke = "black"/>
</g>
<g>
<polygon points = "864.602, 189.950 809.919, 225.471 791.173, 225.683 734.854, 191.421 793.687, 120.092 855.205, 148.046 "
fill = "none" stroke = "black"/>
</g>
<g>
<polygon points = "860.397, 863.371 763.886, 909.222 745.291, 865.531 752.477, 845.198 "
fill = "none" stroke = "black"/>
</g>
<g>
<polygon points = "81.677, 55.800 148.414, 73.368 104.066, 124.531 83.939, 113.932 "
fill = "none" stroke = "black"/>
</g>
<g>
<polygon points = "601.730, 701.437 599.726, 623.156 653.677, 630.224 625.238, 715.858 611.379, 717.631 "
fill = "none" stroke = "black"/>
</g>
<g>
<polygon points = "775.488, 293.888 756.183, 293.324 694.019, 224.157 714.411, 196.950 734.854, 191.421 791.173, 225.683 "
fill = "none" stroke = "black"/>
</g>
<g>
<polygon points = "345.362, 351.711 330.697, 303.245 380.531, 275.553 426.499, 286.560 437.898, 299.841 418.921, 340.430 "
fill = "none" stroke = "black"/>
</g>
<g>
<polygon points = "751.337, 351.767 683.896, 342.747 749.204, 301.386 "
fill = "none" stroke = "black"/>
</g>
<g>
<polygon points = "886.062, 397.571 865.426, 378.368 861.253, 346.499 886.505, 316.608 920.513, 323.239 925.847, 346.561 "
fill = "none" stroke = "black"/>
</g>
<g>
<polygon points = "877.594, 288.719 884.952, 259.027 960.100, 281.170 920.513, 323.239 886.505, 316.608 "
fill = "none" stroke = "black"/>
</g>
<g>
<polygon points = "734.854, 191.421 714.411, 196.950 683.448, 140.429 689.819, 118.856 711.552, 101.432 785.265, 104.872 791.888, 114.390 793.687, 120.092 "
fill = "none" stroke = "black"/>
</g>
<g>
<polygon points = "599.222, 99.732 591.602, 124.509 588.795, 127.246 516.029, 128.601 510.619, 31.886 "
fill = "none" stroke = "black"/>
</g>
<g>
<polygon points = "683.762, 342.783 648.502, 295.263 677.698, 233.305 694.019, 224.157 756.183, 293.324 749.204, 301.386 683.896, 342.747 "
fill = "none" stroke = "black"/>
</g>
<g>
<polygon points = "935.486, 680.183 936.984, 640.054 940.033, 633.841 954.462, 630.249 1000.000, 633.239 1000.000, 726.233 "
fill = "none" stroke = "black"/>
</g>
<g>
<polygon points = "468.442, 524.790 456.672, 504.593 468.551, 485.569 518.480, 485.253 536.559, 555.212 "
fill = "none" stroke = "black"/>
</g>
<g>
<polygon points = "388.351, 646.619 383.910, 625.272 397.257, 599.709 409.157, 600.855 478.560, 688.126 473.920, 696.715 442.838, 701.349 "
fill = "none" stroke = "black"/>
</g>
<g>
<polygon points = "636.708, 715.621 673.842, 738.191 678.930, 763.864 667.020, 785.627 608.153, 817.375 605.565, 817.744 603.320, 816.871 590.351, 787.435 608.970, 721.962 611.379, 717.631 625.238, 715.858 "
fill = "none" stroke = "black"/>
</g>
<g>
<polygon points = "743.335, 998.644 655.774, 930.151 761.683, 918.798 769.635, 943.141 "
fill = "none" stroke = "black"/>
</g>
<g>
<polygon points = "961.019, 373.462 954.902, 359.466 1000.000, 291.148 1000.000, 393.155 "
fill = "none" stroke = "black"/>
</g>
<g>
<polygon points = "746.865, 436.404 755.658, 466.509 742.944, 535.301 651.476, 512.290 647.479, 505.690 680.353, 444.329 "
fill = "none" stroke = "black"/>
</g>
<g>
<polygon points = "214.739, 510.938 208.728, 506.311 223.148, 448.344 256.422, 451.047 251.702, 506.123 "
fill = "none" stroke = "black"/>
</g>
<g>
<polygon points = "223.383, 680.245 167.629, 703.392 165.848, 674.092 166.378, 671.831 186.152, 663.903 "
fill = "none" stroke = "black"/>
</g>
<g>
<polygon points = "505.839, 2.934 510.619, 31.886 516.029, 128.601 474.838, 156.681 463.080, 156.533 437.747, 138.766 479.917, 0.636 480.580, 0.000 503.866, 0.000 "
fill = "none" stroke = "black"/>
</g>
<g>
<polygon points = "115.771, 19.181 170.733, 61.900 148.414, 73.368 81.677, 55.800 79.824, 49.531 "
fill = "none" stroke = "black"/>
</g>
<g>
<polygon points = "68.200, 941.839 67.827, 888.594 115.941, 893.182 166.383, 946.930 165.200, 966.779 162.268, 979.847 "
fill = "none" stroke = "black"/>
</g>
<g>
<polygon points = "923.498, 404.817 961.019, 373.462 1000.000, 393.155 1000.000, 452.031 "
fill = "none" stroke = "black"/>
</g>
<g>
<polygon points = "49.755, 831.125 67.827, 888.594 68.200, 941.839 0.000, 953.647 0.000, 834.608 "
fill = "none" stroke = "black"/>
</g>
<g>
<polygon points = "808.432, 311.549 861.253, 346.499 865.426, 378.368 785.198, 391.882 782.661, 372.657 803.879, 312.612 "
fill = "none" stroke = "black"/>
</g>
<g>
<polygon points = "441.243, 963.309 455.014, 929.143 503.060, 939.773 527.499, 955.390 518.193, 1000.000 436.277, 1000.000 "
fill = "none" stroke = "black"/>
</g>
<g>
<polygon points = "527.499, 955.390 557.479, 936.004 610.834, 943.987 627.947, 952.862 627.640, 1000.000 518.193, 1000.000 "
fill = "none" stroke = "black"/>
</g>
<g>
<polygon points = "859.818, 459.323 866.215, 509.435 827.193, 559.185 803.815, 561.653 802.762, 503.700 816.747, 458.748 "
fill = "none" stroke = "black"/>
</g>
<g>
<polygon points = "346.805, 913.816 441.243, 963.309 436.277, 1000.000 356.674, 1000.000 "
fill = "none" stroke = "black"/>
</g>
<g>
<polygon points = "317.652, 750.037 368.945, 734.968 385.822, 742.062 396.836, 776.918 340.097, 810.355 309.587, 784.715 309.957, 758.279 "
fill = "none" stroke = "black"/>
</g>
<g>
<polygon points = "263.480, 860.514 284.265, 805.142 306.078, 789.044 313.771, 892.772 310.506, 891.568 "
fill = "none" stroke = "black"/>
</g>
<g>
<polygon points = "714.915, 640.732 793.764, 570.065 811.445, 624.580 770.693, 680.530 749.593, 693.791 715.056, 643.351 "
fill = "none" stroke = "black"/>
</g>
<g>
<polygon points = "570.911, 458.226 615.998, 500.124 539.113, 557.215 536.559, 555.212 518.480, 485.253 "
fill = "none" stroke = "black"/>
</g>
<g>
<polygon points = "682.923, 357.331 684.505, 358.058 773.837, 417.463 746.865, 436.404 680.353, 444.329 669.121, 401.084 "
fill = "none" stroke = "black"/>
</g>
<g>
<polygon points = "172.314, 278.203 126.823, 292.312 105.156, 280.729 90.792, 251.971 100.458, 181.005 128.356, 153.836 153.400, 161.550 "
fill = "none" stroke = "black"/>
</g>
<g>
<polygon points = "310.506, 891.568 313.771, 892.772 314.578, 893.190 294.332, 928.464 162.331, 980.082 162.268, 979.847 165.200, 966.779 "
fill = "none" stroke = "black"/>
</g>
<g>
<polygon points = "99.416, 475.795 99.550, 451.709 211.108, 415.054 223.148, 448.344 208.728, 506.311 115.288, 499.421 "
fill = "none" stroke = "black"/>
</g>
<g>
<polygon points = "116.676, 629.192 134.735, 584.391 203.694, 604.330 161.918, 655.123 "
fill = "none" stroke = "black"/>
</g>
<g>
<polygon points = "283.980, 955.778 294.332, 928.464 314.578, 893.190 341.423, 895.401 346.805, 913.816 356.674, 1000.000 305.008, 1000.000 "
fill = "none" stroke = "black"/>
</g>
<g>
<polygon points = "803.879, 312.612 782.661, 372.657 751.337, 351.767 749.204, 301.386 756.183, 293.324 775.488, 293.888 "
fill = "none" stroke = "black"/>
</g>
<g>
<polygon points = "284.321, 85.004 239.007, 65.553 216.962, 40.236 227.983, 0.000 317.093, 0.000 "
fill = "none" stroke = "black"/>
</g>
<g>
<polygon points = "683.448, 140.429 714.411, 196.950 694.019, 224.157 677.698, 233.305 623.846, 204.055 595.455, 159.862 588.795, 127.246 591.602, 124.509 "
fill = "none" stroke = "black"/>
</g>
<g>
<polygon points = "581.056, 846.669 610.834, 943.987 557.479, 936.004 535.942, 871.679 "
fill = "none" stroke = "black"/>
</g>
<g>
<polygon points = "954.462, 630.249 948.645, 546.467 1000.000, 565.604 1000.000, 633.239 "
fill = "none" stroke = "black"/>
</g>
<g>
<polygon points = "627.947, 952.862 655.772, 930.151 655.774, 930.151 743.335, 998.644 743.190, 1000.000 627.640, 1000.000 "
fill = "none" stroke = "black"/>
</g>
<g>
<polygon points = "560.501, 244.289 564.265, 245.384 617.429, 301.462 557.363, 356.971 514.890, 328.766 "
fill = "none" stroke = "black"/>
</g>
<g>
<polygon points = "603.470, 45.466 611.267, 71.281 599.222, 99.732 510.619, 31.886 505.839, 2.934 "
fill = "none" stroke = "black"/>
</g>
<g>
<polygon points = "948.645, 546.467 940.625, 540.099 938.530, 503.491 944.004, 491.012 1000.000, 458.262 1000.000, 565.604 "
fill = "none" stroke = "black"/>
</g>
<g>
<polygon points = "661.264, 66.523 709.923, 23.944 711.552, 101.432 689.819, 118.856 "
fill = "none" stroke = "black"/>
</g>
<g>
<polygon points = "33.319, 598.887 114.386, 541.790 134.735, 584.391 116.676, 629.192 99.814, 646.643 "
fill = "none" stroke = "black"/>
</g>
<g>
<polygon points = "922.451, 648.020 864.049, 664.384 861.929, 663.887 890.432, 595.703 940.033, 633.841 936.984, 640.054 "
fill = "none" stroke = "black"/>
</g>
<g>
<polygon points = "506.098, 326.198 514.890, 328.766 557.363, 356.971 557.977, 360.301 492.230, 416.874 465.401, 400.696 464.446, 395.243 "
fill = "none" stroke = "black"/>
</g>
<g>
<polygon points = "901.888, 929.611 902.139, 926.072 978.408, 883.344 998.769, 973.793 "
fill = "none" stroke = "black"/>
</g>
<g>
<polygon points = "848.655, 15.185 823.752, 82.650 791.888, 114.390 785.265, 104.872 757.042, 0.000 841.264, 0.000 "
fill = "none" stroke = "black"/>
</g>
<g>
<polygon points = "386.386, 883.089 416.189, 796.438 476.954, 808.544 483.512, 851.937 445.591, 893.886 "
fill = "none" stroke = "black"/>
</g>
<g>
<polygon points = "784.896, 392.535 778.430, 414.854 773.837, 417.463 684.505, 358.058 "
fill = "none" stroke = "black"/>
</g>
<g>
<polygon points = "5.251, 243.721 44.535, 288.310 23.629, 307.784 0.000, 319.710 0.000, 242.767 "
fill = "none" stroke = "black"/>
</g>
<g>
<polygon points = "468.697, 479.260 468.551, 485.569 456.672, 504.593 425.029, 507.444 394.723, 444.330 410.375, 423.630 434.198, 427.199 "
fill = "none" stroke = "black"/>
</g>
<g>
<polygon points = "439.278, 24.351 380.330, 115.728 372.321, 115.097 355.850, 55.913 405.389, 19.846 "
fill = "none" stroke = "black"/>
</g>
<g>
<polygon points = "89.871, 679.173 93.371, 729.069 0.000, 721.618 0.000, 647.953 "
fill = "none" stroke = "black"/>
</g>
<g>
<polygon points = "33.724, 224.092 49.608, 216.127 90.792, 251.971 105.156, 280.729 44.535, 288.310 5.251, 243.721 "
fill = "none" stroke = "black"/>
</g>
<g>
<polygon points = "445.591, 893.886 483.512, 851.937 516.177, 867.413 503.060, 939.773 455.014, 929.143 "
fill = "none" stroke = "black"/>
</g>
<g>
<polygon points = "114.386, 541.790 115.288, 499.421 208.728, 506.311 214.739, 510.938 229.605, 602.218 212.820, 604.429 203.694, 604.330 134.735, 584.391 "
fill = "none" stroke = "black"/>
</g>
<g>
<polygon points = "440.242, 200.954 463.080, 156.533 474.838, 156.681 518.034, 220.614 473.294, 303.722 437.898, 299.841 426.499, 286.560 "
fill = "none" stroke = "black"/>
</g>
<g>
<polygon points = "161.918, 655.123 203.694, 604.330 212.820, 604.429 186.152, 663.903 166.378, 671.831 "
fill = "none" stroke = "black"/>
</g>
<g>
<polygon points = "371.972, 256.429 319.120, 185.776 395.481, 211.310 "
fill = "none" stroke = "black"/>
</g>
<g>
<polygon points = "960.100, 281.170 884.952, 259.027 883.667, 256.384 880.727, 204.055 977.760, 198.292 1000.000, 200.330 1000.000, 269.060 "
fill = "none" stroke = "black"/>
</g>
<g>
<polygon points = "848.655, 15.185 882.782, 58.578 823.752, 82.650 "
fill = "none" stroke = "black"/>
</g>
<g>
<polygon points = "214.929, 773.991 212.314, 768.241 235.570, 748.088 309.957, 758.279 309.587, 784.715 306.078, 789.044 284.265, 805.142 "
fill = "none" stroke = "black"/>
</g>
<g>
<polygon points = "425.626, 596.837 504.525, 651.740 501.820, 663.418 478.560, 688.126 409.157, 600.855 "
fill = "none" stroke = "black"/>
</g>
<g>
<polygon points = "117.561, 759.526 129.252, 761.076 158.476, 852.320 103.277, 861.328 52.408, 829.707 "
fill = "none" stroke = "black"/>
</g>
<g>
<polygon points = "773.837, 417.463 778.430, 414.854 795.136, 430.108 816.747, 458.748 802.762, 503.700 755.658, 466.509 746.865, 436.404 "
fill = "none" stroke = "black"/>
</g>
<g>
<polygon points = "896.732, 683.780 864.049, 664.384 922.451, 648.020 "
fill = "none" stroke = "black"/>
</g>
<g>
<polygon points = "828.357, 265.880 816.301, 302.785 808.432, 311.549 803.879, 312.612 775.488, 293.888 791.173, 225.683 809.919, 225.471 "
fill = "none" stroke = "black"/>
</g>
<g>
<polygon points = "99.416, 475.795 115.288, 499.421 114.386, 541.790 33.319, 598.887 0.000, 601.749 0.000, 512.715 "
fill = "none" stroke = "black"/>
</g>
<g>
<polygon points = "242.923, 137.914 310.082, 171.169 309.286, 176.494 263.684, 235.133 180.153, 145.707 183.240, 142.271 "
fill = "none" stroke = "black"/>
</g>
<g>
<polygon points = "184.809, 886.466 230.981, 855.094 263.480, 860.514 310.506, 891.568 165.200, 966.779 166.383, 946.930 "
fill = "none" stroke = "black"/>
</g>
<g>
<polygon points = "397.257, 599.709 383.910, 625.272 293.046, 647.391 273.210, 644.083 264.011, 620.364 284.802, 592.900 378.322, 562.065 "
fill = "none" stroke = "black"/>
</g>
<g>
<polygon points = "395.481, 211.310 319.120, 185.776 309.286, 176.494 310.082, 171.169 332.252, 140.095 372.321, 115.097 380.330, 115.728 437.747, 138.766 463.080, 156.533 440.242, 200.954 "
fill = "none" stroke = "black"/>
</g>
<g>
<polygon points = "998.769, 973.793 978.408, 883.344 1000.000, 867.977 1000.000, 974.538 "
fill = "none" stroke = "black"/>
</g>
<g>
<polygon points = "557.977, 360.301 557.363, 356.971 617.429, 301.462 648.502, 295.263 683.762, 342.783 682.923, 357.331 669.121, 401.084 568.438, 378.631 "
fill = "none" stroke = "black"/>
</g>
<g>
<polygon points = "489.448, 730.104 496.541, 781.981 476.954, 808.544 416.189, 796.438 403.639, 785.753 396.836, 776.918 385.822, 742.062 442.838, 701.349 473.920, 696.715 "
fill = "none" stroke = "black"/>
</g>
<g>
<polygon points = "239.007, 65.553 284.321, 85.004 332.252, 140.095 310.082, 171.169 242.923, 137.914 "
fill = "none" stroke = "black"/>
</g>
<g>
<polygon points = "660.035, 893.452 605.565, 817.744 608.153, 817.375 685.656, 825.473 696.084, 861.355 "
fill = "none" stroke = "black"/>
</g>
<g>
<polygon points = "716.288, 797.062 693.040, 814.424 667.020, 785.627 678.930, 763.864 "
fill = "none" stroke = "black"/>
</g>
<g>
<polygon points = "651.476, 512.290 651.313, 526.067 599.325, 622.453 535.458, 601.118 539.113, 557.215 615.998, 500.124 647.479, 505.690 "
fill = "none" stroke = "black"/>
</g>
<g>
<polygon points = "709.923, 23.944 661.264, 66.523 611.267, 71.281 603.470, 45.466 624.145, 0.000 724.963, 0.000 "
fill = "none" stroke = "black"/>
</g>
<g>
<polygon points = "496.541, 781.981 489.448, 730.104 608.970, 721.962 590.351, 787.435 "
fill = "none" stroke = "black"/>
</g>
<g>
<polygon points = "96.052, 663.301 99.814, 646.643 116.676, 629.192 161.918, 655.123 166.378, 671.831 165.848, 674.092 "
fill = "none" stroke = "black"/>
</g>
<g>
<polygon points = "715.056, 643.351 749.593, 693.791 755.298, 727.734 673.842, 738.191 636.708, 715.621 "
fill = "none" stroke = "black"/>
</g>
<g>
<polygon points = "889.264, 405.512 888.327, 409.615 795.136, 430.108 778.430, 414.854 784.896, 392.535 785.198, 391.882 865.426, 378.368 886.062, 397.571 "
fill = "none" stroke = "black"/>
</g>
<g>
<polygon points = "11.187, 138.426 48.241, 186.703 49.608, 216.127 33.724, 224.092 0.000, 189.418 0.000, 136.193 "
fill = "none" stroke = "black"/>
</g>
<g>
<polygon points = "68.200, 941.839 162.268, 979.847 162.331, 980.082 166.518, 1000.000 0.000, 1000.000 0.000, 953.647 "
fill = "none" stroke = "black"/>
</g>
<g>
<polygon points = "501.820, 663.418 504.525, 651.740 521.382, 613.076 535.458, 601.118 599.325, 622.453 599.726, 623.156 601.730, 701.437 "
fill = "none" stroke = "black"/>
</g>
<g>
<polygon points = "211.108, 415.054 231.643, 369.494 237.650, 361.440 311.092, 408.805 314.565, 438.252 256.422, 451.047 223.148, 448.344 "
fill = "none" stroke = "black"/>
</g>
<g>
<polygon points = "99.228, 450.805 101.689, 394.458 231.643, 369.494 211.108, 415.054 99.550, 451.709 "
fill = "none" stroke = "black"/>
</g>
<g>
<polygon points = "473.294, 303.722 518.034, 220.614 543.227, 228.487 560.501, 244.289 514.890, 328.766 506.098, 326.198 "
fill = "none" stroke = "black"/>
</g>
<g>
<polygon points = "841.819, 667.746 770.693, 680.530 811.445, 624.580 "
fill = "none" stroke = "black"/>
</g>
<g>
<polygon points = "785.385, 765.423 755.298, 727.734 749.593, 693.791 770.693, 680.530 841.819, 667.746 845.676, 670.867 839.960, 715.532 796.545, 766.038 "
fill = "none" stroke = "black"/>
</g>
<g>
<polygon points = "489.448, 730.104 473.920, 696.715 478.560, 688.126 501.820, 663.418 601.730, 701.437 611.379, 717.631 608.970, 721.962 "
fill = "none" stroke = "black"/>
</g>
<g>
<polygon points = "876.190, 979.374 769.635, 943.141 761.683, 918.798 763.886, 909.222 860.397, 863.371 866.297, 861.254 902.139, 926.072 901.888, 929.611 "
fill = "none" stroke = "black"/>
</g>
<g>
<polygon points = "495.218, 434.220 569.468, 454.426 570.911, 458.226 518.480, 485.253 468.551, 485.569 468.697, 479.260 "
fill = "none" stroke = "black"/>
</g>
<g>
<polygon points = "802.762, 503.700 803.815, 561.653 794.673, 567.469 742.944, 535.301 755.658, 466.509 "
fill = "none" stroke = "black"/>
</g>
<g>
<polygon points = "651.313, 526.067 651.476, 512.290 742.944, 535.301 794.673, 567.469 793.764, 570.065 714.915, 640.732 693.619, 624.375 "
fill = "none" stroke = "black"/>
</g>
<g>
<polygon points = "264.011, 620.364 229.605, 602.218 214.739, 510.938 251.702, 506.123 295.690, 507.186 284.802, 592.900 "
fill = "none" stroke = "black"/>
</g>
<g>
<polygon points = "346.351, 853.059 340.097, 810.355 396.836, 776.918 403.639, 785.753 "
fill = "none" stroke = "black"/>
</g>
<g>
<polygon points = "141.797, 757.235 129.252, 761.076 117.561, 759.526 93.371, 729.069 89.871, 679.173 96.052, 663.301 165.848, 674.092 167.629, 703.392 "
fill = "none" stroke = "black"/>
</g>
<g>
<polygon points = "405.389, 19.846 355.850, 55.913 323.846, 0.000 389.100, 0.000 "
fill = "none" stroke = "black"/>
</g>
<g>
<polygon points = "910.761, 700.047 907.033, 728.307 839.960, 715.532 845.676, 670.867 861.929, 663.887 864.049, 664.384 896.732, 683.780 "
fill = "none" stroke = "black"/>
</g>
<g>
<polygon points = "83.939, 113.932 104.066, 124.531 128.356, 153.836 100.458, 181.005 48.241, 186.703 11.187, 138.426 "
fill = "none" stroke = "black"/>
</g>
<g>
<polygon points = "23.629, 307.784 44.535, 288.310 105.156, 280.729 126.823, 292.312 98.970, 377.865 64.017, 366.913 "
fill = "none" stroke = "black"/>
</g>
<g>
<polygon points = "263.684, 235.133 243.414, 278.243 226.507, 289.927 172.314, 278.203 153.400, 161.550 180.153, 145.707 "
fill = "none" stroke = "black"/>
</g>
<g>
<polygon points = "696.084, 861.355 685.656, 825.473 693.040, 814.424 716.288, 797.062 761.915, 791.212 752.477, 845.198 745.291, 865.531 "
fill = "none" stroke = "black"/>
</g>
<g>
<polygon points = "216.962, 40.236 187.863, 62.946 170.733, 61.900 115.771, 19.181 119.895, 0.000 227.983, 0.000 "
fill = "none" stroke = "black"/>
</g>
<g>
<polygon points = "977.760, 198.292 887.025, 119.968 915.220, 82.195 1000.000, 58.348 1000.000, 200.330 "
fill = "none" stroke = "black"/>
</g>
<g>
<polygon points = "661.264, 66.523 689.819, 118.856 683.448, 140.429 591.602, 124.509 599.222, 99.732 611.267, 71.281 "
fill = "none" stroke = "black"/>
</g>
<g>
<polygon points = "796.545, 766.038 839.960, 715.532 907.033, 728.307 924.171, 753.352 872.279, 822.930 868.338, 825.421 "
fill = "none" stroke = "black"/>
</g>
<g>
<polygon points = "358.644, 698.920 388.351, 646.619 442.838, 701.349 385.822, 742.062 368.945, 734.968 "
fill = "none" stroke = "black"/>
</g>
<g>
<polygon points = "888.327, 409.615 886.491, 435.024 859.818, 459.323 816.747, 458.748 795.136, 430.108 "
fill = "none" stroke = "black"/>
</g>
<g>
<polygon points = "216.962, 40.236 239.007, 65.553 242.923, 137.914 183.240, 142.271 187.863, 62.946 "
fill = "none" stroke = "black"/>
</g>
<g>
<polygon points = "99.228, 450.805 99.550, 451.709 99.416, 475.795 0.000, 512.715 0.000, 413.837 "
fill = "none" stroke = "black"/>
</g>
<g>
<polygon points = "617.429, 301.462 564.265, 245.384 623.846, 204.055 677.698, 233.305 648.502, 295.263 "
fill = "none" stroke = "black"/>
</g>
<g>
<polygon points = "761.683, 918.798 655.774, 930.151 655.772, 930.151 660.035, 893.452 696.084, 861.355 745.291, 865.531 763.886, 909.222 "
fill = "none" stroke = "black"/>
</g>
<g>
<polygon points = "418.921, 340.430 437.898, 299.841 473.294, 303.722 506.098, 326.198 464.446, 395.243 419.317, 358.222 "
fill = "none" stroke = "black"/>
</g>
<g>
<polygon points = "341.423, 895.401 342.387, 894.615 386.386, 883.089 445.591, 893.886 455.014, 929.143 441.243, 963.309 346.805, 913.816 "
fill = "none" stroke = "black"/>
</g>
<g>
<polygon points = "516.177, 867.413 535.942, 871.679 557.479, 936.004 527.499, 955.390 503.060, 939.773 "
fill = "none" stroke = "black"/>
</g>
<g>
<polygon points = "243.414, 278.243 263.684, 235.133 309.286, 176.494 319.120, 185.776 371.972, 256.429 380.531, 275.553 330.697, 303.245 "
fill = "none" stroke = "black"/>
</g>
<g>
<polygon points = "458.165, 579.247 468.442, 524.790 536.559, 555.212 539.113, 557.215 535.458, 601.118 521.382, 613.076 "
fill = "none" stroke = "black"/>
</g>
<g>
<polygon points = "944.004, 491.012 886.491, 435.024 888.327, 409.615 889.264, 405.512 923.498, 404.817 1000.000, 452.031 1000.000, 458.262 "
fill = "none" stroke = "black"/>
</g>
<g>
<polygon points = "880.727, 204.055 883.667, 256.384 828.357, 265.880 809.919, 225.471 864.602, 189.950 "
fill = "none" stroke = "black"/>
</g>
<g>
<polygon points = "230.981, 855.094 214.929, 773.991 284.265, 805.142 263.480, 860.514 "
fill = "none" stroke = "black"/>
</g>
<g>
<polygon points = "883.667, 256.384 884.952, 259.027 877.594, 288.719 816.301, 302.785 828.357, 265.880 "
fill = "none" stroke = "black"/>
</g>
<g>
<polygon points = "425.029, 507.444 456.672, 504.593 468.442, 524.790 458.165, 579.247 425.626, 596.837 409.157, 600.855 397.257, 599.709 378.322, 562.065 379.731, 535.610 "
fill = "none" stroke = "black"/>
</g>
<g>
<polygon points = "693.619, 624.375 714.915, 640.732 715.056, 643.351 636.708, 715.621 625.238, 715.858 653.677, 630.224 "
fill = "none" stroke = "black"/>
</g>
<g>
<polygon points = "923.498, 404.817 889.264, 405.512 886.062, 397.571 925.847, 346.561 954.902, 359.466 961.019, 373.462 "
fill = "none" stroke = "black"/>
</g>
<g>
<polygon points = "885.553, 584.178 940.625, 540.099 948.645, 546.467 954.462, 630.249 940.033, 633.841 890.432, 595.703 "
fill = "none" stroke = "black"/>
</g>
<g>
<polygon points = "101.689, 394.458 98.970, 377.865 126.823, 292.312 172.314, 278.203 226.507, 289.927 237.650, 361.440 231.643, 369.494 "
fill = "none" stroke = "black"/>
</g>
<g>
<polygon points = "924.171, 753.352 907.033, 728.307 910.761, 700.047 935.486, 680.183 1000.000, 726.233 1000.000, 748.981 "
fill = "none" stroke = "black"/>
</g>
<g>
<polygon points = "479.917, 0.636 439.278, 24.351 405.389, 19.846 389.100, 0.000 480.580, 0.000 "
fill = "none" stroke = "black"/>
</g>
<g>
<polygon points = "33.724, 224.092 5.251, 243.721 0.000, 242.767 0.000, 189.418 "
fill = "none" stroke = "black"/>
</g>
<g>
<polygon points = "93.371, 729.069 117.561, 759.526 52.408, 829.707 49.755, 831.125 0.000, 834.608 0.000, 721.618 "
fill = "none" stroke = "black"/>
</g>
<g>
<polygon points = "938.530, 503.491 940.625, 540.099 885.553, 584.178 827.193, 559.185 866.215, 509.435 "
fill = "none" stroke = "black"/>
</g>
<g>
<polygon points = "342.387, 894.615 346.351, 853.059 403.639, 785.753 416.189, 796.438 386.386, 883.089 "
fill = "none" stroke = "black"/>
</g>
<g>
<polygon points = "693.040, 814.424 685.656, 825.473 608.153, 817.375 667.020, 785.627 "
fill = "none" stroke = "black"/>
</g>
<g>
<polygon points = "655.772, 930.151 627.947, 952.862 610.834, 943.987 581.056, 846.669 603.320, 816.871 605.565, 817.744 660.035, 893.452 "
fill = "none" stroke = "black"/>
</g>
<g>
<polygon points = "944.004, 491.012 938.530, 503.491 866.215, 509.435 859.818, 459.323 886.491, 435.024 "
fill = "none" stroke = "black"/>
</g>
<g>
<polygon points = "141.797, 757.235 167.629, 703.392 223.383, 680.245 249.513, 676.210 235.570, 748.088 212.314, 768.241 "
fill = "none" stroke = "black"/>
</g>
<g>
<polygon points = "816.301, 302.785 877.594, 288.719 886.505, 316.608 861.253, 346.499 808.432, 311.549 "
fill = "none" stroke = "black"/>
</g>
<g>
<polygon points = "458.165, 579.247 521.382, 613.076 504.525, 651.740 425.626, 596.837 "
fill = "none" stroke = "black"/>
</g>
<g>
<polygon points = "977.760, 198.292 880.727, 204.055 864.602, 189.950 855.205, 148.046 887.025, 119.968 "
fill = "none" stroke = "black"/>
</g>
<g>
<polygon points = "394.723, 444.330 425.029, 507.444 379.731, 535.610 322.142, 486.838 323.699, 458.066 "
fill = "none" stroke = "black"/>
</g>
<g>
<polygon points = "333.870, 388.065 311.092, 408.805 237.650, 361.440 226.507, 289.927 243.414, 278.243 330.697, 303.245 345.362, 351.711 "
fill = "none" stroke = "black"/>
</g>
<g>
<polygon points = "755.298, 727.734 785.385, 765.423 761.915, 791.212 716.288, 797.062 678.930, 763.864 673.842, 738.191 "
fill = "none" stroke = "black"/>
</g>
<g>
<polygon points = "79.824, 49.531 81.677, 55.800 83.939, 113.932 11.187, 138.426 0.000, 136.193 0.000, 12.254 "
fill = "none" stroke = "black"/>
</g>
<g>
<polygon points = "115.771, 19.181 79.824, 49.531 0.000, 12.254 0.000, 0.000 119.895, 0.000 "
fill = "none" stroke = "black"/>
</g>
<g>
<polygon points = "158.476, 852.320 184.809, 886.466 166.383, 946.930 115.941, 893.182 103.277, 861.328 "
fill = "none" stroke = "black"/>
</g>
<g>
<polygon points = "48.241, 186.703 100.458, 181.005 90.792, 251.971 49.608, 216.127 "
fill = "none" stroke = "black"/>
</g>
<g>
<polygon points = "64.017, 366.913 98.970, 377.865 101.689, 394.458 99.228, 450.805 0.000, 413.837 0.000, 363.923 "
fill = "none" stroke = "black"/>
</g>
<g>
<polygon points = "543.227, 228.487 595.455, 159.862 623.846, 204.055 564.265, 245.384 560.501, 244.289 "
fill = "none" stroke = "black"/>
</g>
<g>
<polygon points = "599.325, 622.453 651.313, 526.067 693.619, 624.375 653.677, 630.224 599.726, 623.156 "
fill = "none" stroke = "black"/>
</g>
<g>
<polygon points = "235.570, 748.088 249.513, 676.210 272.824, 645.208 317.652, 750.037 309.957, 758.279 "
fill = "none" stroke = "black"/>
</g>
<g>
<polygon points = "162.331, 980.082 294.332, 928.464 283.980, 955.778 186.324, 1000.000 166.518, 1000.000 "
fill = "none" stroke = "black"/>
</g>
<g>
<polygon points = "784.896, 392.535 684.505, 358.058 682.923, 357.331 683.762, 342.783 683.896, 342.747 751.337, 351.767 782.661, 372.657 785.198, 391.882 "
fill = "none" stroke = "black"/>
</g>
<g>
<polygon points = "33.319, 598.887 99.814, 646.643 96.052, 663.301 89.871, 679.173 0.000, 647.953 0.000, 601.749 "
fill = "none" stroke = "black"/>
</g>
<g>
<polygon points = "885.553, 584.178 890.432, 595.703 861.929, 663.887 845.676, 670.867 841.819, 667.746 811.445, 624.580 793.764, 570.065 794.673, 567.469 803.815, 561.653 827.193, 559.185 "
fill = "none" stroke = "black"/>
</g>
<g>
<polygon points = "212.820, 604.429 229.605, 602.218 264.011, 620.364 273.210, 644.083 272.824, 645.208 249.513, 676.210 223.383, 680.245 186.152, 663.903 "
fill = "none" stroke = "black"/>
</g>
<g>
<polygon points = "910.761, 700.047 896.732, 683.780 922.451, 648.020 936.984, 640.054 935.486, 680.183 "
fill = "none" stroke = "black"/>
</g>
<g>
<polygon points = "543.227, 228.487 518.034, 220.614 474.838, 156.681 516.029, 128.601 588.795, 127.246 595.455, 159.862 "
fill = "none" stroke = "black"/>
</g>
<g>
<polygon points = "581.056, 846.669 535.942, 871.679 516.177, 867.413 483.512, 851.937 476.954, 808.544 496.541, 781.981 590.351, 787.435 603.320, 816.871 "
fill = "none" stroke = "black"/>
</g>
<g>
<polygon points = "293.046, 647.391 383.910, 625.272 388.351, 646.619 358.644, 698.920 "
fill = "none" stroke = "black"/>
</g>
<g>
<polygon points = "355.850, 55.913 372.321, 115.097 332.252, 140.095 284.321, 85.004 317.093, 0.000 323.846, 0.000 "
fill = "none" stroke = "black"/>
</g>
<g>
<polygon points = "358.644, 698.920 368.945, 734.968 317.652, 750.037 272.824, 645.208 273.210, 644.083 293.046, 647.391 "
fill = "none" stroke = "black"/>
</g>
<g>
<polygon points = "283.980, 955.778 305.008, 1000.000 186.324, 1000.000 "
fill = "none" stroke = "black"/>
</g>
<g>
<polygon points = "872.279, 822.930 924.171, 753.352 1000.000, 748.981 1000.000, 830.221 "
fill = "none" stroke = "black"/>
</g>
<g>
<polygon points = "333.870, 388.065 345.362, 351.711 418.921, 340.430 419.317, 358.222 400.483, 395.649 "
fill = "none" stroke = "black"/>
</g>
<g>
<polygon points = "342.387, 894.615 341.423, 895.401 314.578, 893.190 313.771, 892.772 306.078, 789.044 309.587, 784.715 340.097, 810.355 346.351, 853.059 "
fill = "none" stroke = "black"/>
</g>
<g>
<polygon points = "495.218, 434.220 492.230, 416.874 557.977, 360.301 568.438, 378.631 569.468, 454.426 "
fill = "none" stroke = "black"/>
</g>
<g>
<polygon points = "23.629, 307.784 64.017, 366.913 0.000, 363.923 0.000, 319.710 "
fill = "none" stroke = "black"/>
</g>
<g>
<polygon points = "743.335, 998.644 769.635, 943.141 876.190, 979.374 876.482, 1000.000 743.190, 1000.000 "
fill = "none" stroke = "black"/>
</g>
<g>
<polygon points = "371.972, 256.429 395.481, 211.310 440.242, 200.954 426.499, 286.560 380.531, 275.553 "
fill = "none" stroke = "black"/>
</g>
<g>
<polygon points = "311.092, 408.805 333.870, 388.065 400.483, 395.649 410.375, 423.630 394.723, 444.330 323.699, 458.066 314.565, 438.252 "
fill = "none" stroke = "black"/>
</g>
<g>
<polygon points = "603.470, 45.466 505.839, 2.934 503.866, 0.000 624.145, 0.000 "
fill = "none" stroke = "black"/>
</g>
<g>
<polygon points = "492.230, 416.874 495.218, 434.220 468.697, 479.260 434.198, 427.199 465.401, 400.696 "
fill = "none" stroke = "black"/>
</g>
<g>
<polygon points = "876.482, 1000.000 876.190, 979.374 901.888, 929.611 998.769, 973.793 1000.000, 974.538 1000.000, 1000.000 "
fill = "none" stroke = "black"/>
</g>
<g>
<polygon points = "230.981, 855.094 184.809, 886.466 158.476, 852.320 129.252, 761.076 141.797, 757.235 212.314, 768.241 214.929, 773.991 "
fill = "none" stroke = "black"/>
</g>
<g>
<polygon points = "761.915, 791.212 785.385, 765.423 796.545, 766.038 868.338, 825.421 866.297, 861.254 860.397, 863.371 752.477, 845.198 "
fill = "none" stroke = "black"/>
</g>
</svg>
