<svg xmlns = "http://www.w3.org/2000/svg" width = "1000" height = "1000">
<g>
<polygon points = ""
fill = "none" stroke = "black"/>
</g>
<g>
<polygon points = ""
fill = "none" stroke = "black"/>
</g>
<g>
<polygon points = "434.198, 427.199 410.375, 423.630 400.483, 395.649 407.936, 380.837 438.587, 374.031 464.446, 395.243 465.401, 400.696 "
fill = "none" stroke = "black"/>
</g>
<g>
<polygon points = ""
fill = "none" stroke = "black"/>
</g>
<g>
<polygon points = ""
fill = "none" stroke = "black"/>
</g>
<g>
<polygon points = "264.855, 506.441 251.702, 506.123 256.422, 451.047 314.565, 438.252 322.953, 456.446 "
fill = "none" stroke = "black"/>
</g>
<g>
<polygon points = "569.468, 454.426 568.701, 397.991 658.827, 410.660 656.814, 440.970 616.744, 473.802 597.797, 483.210 570.911, 458.226 "
fill = "none" stroke = "black"/>
</g>
<g>
<polygon points = ""
fill = "none" stroke = "black"/>
</g>
<g>
<polygon points = ""
fill = "none" stroke = "black"/>
</g>
<g>
<polygon points = ""
fill = "none" stroke = "black"/>
</g>
<g>
<polygon points = "348.687, 509.320 354.422, 514.176 365.173, 557.760 356.551, 569.243 284.802, 592.900 290.647, 546.889 "
fill = "none" stroke = "black"/>
</g>
<g>
<polygon points = ""
fill = "none" stroke = "black"/>
</g>
<g>
<polygon points = ""
fill = "none" stroke = "black"/>
</g>
<g>
<polygon points = ""
fill = "none" stroke = "black"/>
</g>
<g>
<polygon points = ""
fill = "none" stroke = "black"/>
</g>
<g>
<polygon points = "628.046, 626.866 653.677, 630.224 636.168, 682.946 "
fill = "none" stroke = "black"/>
</g>
<g>
<polygon points = "766.637, 286.987 760.819, 284.341 692.837, 149.445 731.088, 0.000 1000.000, 0.000 1000.000, 134.930 "
fill = "none" stroke = "black"/>
</g>
<g>
<polygon points = "358.956, 310.164 412.578, 317.347 397.892, 343.655 345.362, 351.711 343.387, 345.185 "
fill = "none" stroke = "black"/>
</g>
<g>
<polygon points = "719.681, 320.136 749.921, 318.309 751.337, 351.767 737.942, 349.975 716.747, 324.891 "
fill = "none" stroke = "black"/>
</g>
<g>
<polygon points = ""
fill = "none" stroke = "black"/>
</g>
<g>
<polygon points = ""
fill = "none" stroke = "black"/>
</g>
<g>
<polygon points = ""
fill = "none" stroke = "black"/>
</g>
<g>
<polygon points = ""
fill = "none" stroke = "black"/>
</g>
<g>
<polygon points = "700.607, 289.193 707.431, 268.094 734.097, 286.650 719.672, 319.949 "
fill = "none" stroke = "black"/>
</g>
<g>
<polygon points = ""
fill = "none" stroke = "black"/>
</g>
<g>
<polygon points = "531.826, 553.098 477.963, 529.042 507.315, 485.323 518.480, 485.253 535.596, 551.487 "
fill = "none" stroke = "black"/>
</g>
<g>
<polygon points = "407.715, 666.070 388.351, 646.619 386.503, 637.738 418.188, 612.211 452.270, 655.067 "
fill = "none" stroke = "black"/>
</g>
<g>
<polygon points = "633.547, 715.686 636.708, 715.621 673.842, 738.191 678.930, 763.864 549.708, 1000.000 529.903, 1000.000 608.970, 721.962 609.001, 721.908 "
fill = "none" stroke = "black"/>
</g>
<g>
<polygon points = ""
fill = "none" stroke = "black"/>
</g>
<g>
<polygon points = ""
fill = "none" stroke = "black"/>
</g>
<g>
<polygon points = "702.601, 465.103 741.304, 441.700 747.814, 439.652 755.658, 466.509 742.944, 535.301 716.613, 528.677 703.010, 505.256 "
fill = "none" stroke = "black"/>
</g>
<g>
<polygon points = "210.927, 447.351 256.422, 451.047 251.702, 506.123 237.595, 507.961 "
fill = "none" stroke = "black"/>
</g>
<g>
<polygon points = ""
fill = "none" stroke = "black"/>
</g>
<g>
<polygon points = ""
fill = "none" stroke = "black"/>
</g>
<g>
<polygon points = ""
fill = "none" stroke = "black"/>
</g>
<g>
<polygon points = ""
fill = "none" stroke = "black"/>
</g>
<g>
<polygon points = ""
fill = "none" stroke = "black"/>
</g>
<g>
<polygon points = ""
fill = "none" stroke = "black"/>
</g>
<g>
<polygon points = ""
fill = "none" stroke = "black"/>
</g>
<g>
<polygon points = ""
fill = "none" stroke = "black"/>
</g>
<g>
<polygon points = ""
fill = "none" stroke = "black"/>
</g>
<g>
<polygon points = ""
fill = "none" stroke = "black"/>
</g>
<g>
<polygon points = ""
fill = "none" stroke = "black"/>
</g>
<g>
<polygon points = "309.957, 758.279 317.652, 750.037 338.800, 743.824 409.157, 815.910 467.325, 1000.000 306.575, 1000.000 "
fill = "none" stroke = "black"/>
</g>
<g>
<polygon points = ""
fill = "none" stroke = "black"/>
</g>
<g>
<polygon points = "783.382, 619.525 809.127, 627.763 755.137, 701.888 722.576, 654.334 "
fill = "none" stroke = "black"/>
</g>
<g>
<polygon points = "597.282, 514.022 549.424, 549.558 535.596, 551.487 518.480, 485.253 570.911, 458.226 597.797, 483.210 "
fill = "none" stroke = "black"/>
</g>
<g>
<polygon points = "745.712, 419.975 702.074, 387.731 716.173, 379.117 749.519, 401.292 "
fill = "none" stroke = "black"/>
</g>
<g>
<polygon points = ""
fill = "none" stroke = "black"/>
</g>
<g>
<polygon points = ""
fill = "none" stroke = "black"/>
</g>
<g>
<polygon points = ""
fill = "none" stroke = "black"/>
</g>
<g>
<polygon points = ""
fill = "none" stroke = "black"/>
</g>
<g>
<polygon points = ""
fill = "none" stroke = "black"/>
</g>
<g>
<polygon points = "766.887, 305.597 809.380, 357.621 772.523, 365.896 751.337, 351.767 749.921, 318.309 "
fill = "none" stroke = "black"/>
</g>
<g>
<polygon points = ""
fill = "none" stroke = "black"/>
</g>
<g>
<polygon points = ""
fill = "none" stroke = "black"/>
</g>
<g>
<polygon points = ""
fill = "none" stroke = "black"/>
</g>
<g>
<polygon points = ""
fill = "none" stroke = "black"/>
</g>
<g>
<polygon points = ""
fill = "none" stroke = "black"/>
</g>
<g>
<polygon points = "536.117, 289.452 557.862, 249.177 565.671, 246.867 602.969, 286.209 585.413, 331.049 559.344, 355.140 556.824, 356.612 541.047, 346.136 "
fill = "none" stroke = "black"/>
</g>
<g>
<polygon points = ""
fill = "none" stroke = "black"/>
</g>
<g>
<polygon points = ""
fill = "none" stroke = "black"/>
</g>
<g>
<polygon points = ""
fill = "none" stroke = "black"/>
</g>
<g>
<polygon points = ""
fill = "none" stroke = "black"/>
</g>
<g>
<polygon points = ""
fill = "none" stroke = "black"/>
</g>
<g>
<polygon points = "488.873, 354.752 511.906, 339.887 541.047, 346.136 556.824, 356.612 556.693, 361.406 492.230, 416.874 465.401, 400.696 464.446, 395.243 "
fill = "none" stroke = "black"/>
</g>
<g>
<polygon points = ""
fill = "none" stroke = "black"/>
</g>
<g>
<polygon points = ""
fill = "none" stroke = "black"/>
</g>
<g>
<polygon points = ""
fill = "none" stroke = "black"/>
</g>
<g>
<polygon points = "722.575, 371.132 757.316, 383.063 749.519, 401.292 716.173, 379.117 "
fill = "none" stroke = "black"/>
</g>
<g>
<polygon points = ""
fill = "none" stroke = "black"/>
</g>
<g>
<polygon points = "458.988, 464.609 452.360, 475.700 400.991, 457.382 394.723, 444.330 410.375, 423.630 434.198, 427.199 "
fill = "none" stroke = "black"/>
</g>
<g>
<polygon points = ""
fill = "none" stroke = "black"/>
</g>
<g>
<polygon points = ""
fill = "none" stroke = "black"/>
</g>
<g>
<polygon points = ""
fill = "none" stroke = "black"/>
</g>
<g>
<polygon points = ""
fill = "none" stroke = "black"/>
</g>
<g>
<polygon points = ""
fill = "none" stroke = "black"/>
</g>
<g>
<polygon points = "509.021, 237.358 495.128, 263.165 462.877, 288.616 434.884, 285.309 428.404, 274.692 457.770, 91.763 458.942, 86.410 "
fill = "none" stroke = "black"/>
</g>
<g>
<polygon points = ""
fill = "none" stroke = "black"/>
</g>
<g>
<polygon points = "458.942, 86.410 457.770, 91.763 371.972, 256.429 326.670, 195.869 312.778, 0.000 458.043, 0.000 "
fill = "none" stroke = "black"/>
</g>
<g>
<polygon points = ""
fill = "none" stroke = "black"/>
</g>
<g>
<polygon points = ""
fill = "none" stroke = "black"/>
</g>
<g>
<polygon points = "267.128, 752.411 309.957, 758.279 306.575, 1000.000 279.547, 1000.000 "
fill = "none" stroke = "black"/>
</g>
<g>
<polygon points = "425.201, 596.941 425.626, 596.837 504.525, 651.740 501.820, 663.418 492.258, 673.575 452.270, 655.067 418.188, 612.211 "
fill = "none" stroke = "black"/>
</g>
<g>
<polygon points = ""
fill = "none" stroke = "black"/>
</g>
<g>
<polygon points = "832.191, 526.935 755.658, 466.509 747.814, 439.652 747.922, 439.533 1000.000, 417.158 1000.000, 506.239 "
fill = "none" stroke = "black"/>
</g>
<g>
<polygon points = ""
fill = "none" stroke = "black"/>
</g>
<g>
<polygon points = ""
fill = "none" stroke = "black"/>
</g>
<g>
<polygon points = ""
fill = "none" stroke = "black"/>
</g>
<g>
<polygon points = ""
fill = "none" stroke = "black"/>
</g>
<g>
<polygon points = ""
fill = "none" stroke = "black"/>
</g>
<g>
<polygon points = "367.101, 629.363 319.511, 640.948 268.608, 614.291 284.802, 592.900 356.551, 569.243 "
fill = "none" stroke = "black"/>
</g>
<g>
<polygon points = ""
fill = "none" stroke = "black"/>
</g>
<g>
<polygon points = ""
fill = "none" stroke = "black"/>
</g>
<g>
<polygon points = "559.344, 355.140 585.413, 331.049 669.909, 344.292 667.561, 388.811 "
fill = "none" stroke = "black"/>
</g>
<g>
<polygon points = "409.157, 815.910 412.493, 723.017 422.052, 716.191 479.715, 709.176 489.448, 730.104 526.352, 1000.000 467.325, 1000.000 "
fill = "none" stroke = "black"/>
</g>
<g>
<polygon points = ""
fill = "none" stroke = "black"/>
</g>
<g>
<polygon points = ""
fill = "none" stroke = "black"/>
</g>
<g>
<polygon points = "944.662, 1000.000 549.708, 1000.000 678.930, 763.864 "
fill = "none" stroke = "black"/>
</g>
<g>
<polygon points = "619.729, 537.477 625.108, 574.652 606.359, 609.412 571.817, 591.931 549.424, 549.558 597.282, 514.022 "
fill = "none" stroke = "black"/>
</g>
<g>
<polygon points = ""
fill = "none" stroke = "black"/>
</g>
<g>
<polygon points = "489.448, 730.104 608.970, 721.962 529.903, 1000.000 526.352, 1000.000 "
fill = "none" stroke = "black"/>
</g>
<g>
<polygon points = ""
fill = "none" stroke = "black"/>
</g>
<g>
<polygon points = "710.834, 647.246 722.576, 654.334 755.137, 701.888 765.213, 726.461 673.842, 738.191 636.708, 715.621 "
fill = "none" stroke = "black"/>
</g>
<g>
<polygon points = ""
fill = "none" stroke = "black"/>
</g>
<g>
<polygon points = ""
fill = "none" stroke = "black"/>
</g>
<g>
<polygon points = ""
fill = "none" stroke = "black"/>
</g>
<g>
<polygon points = "533.931, 629.401 593.067, 638.638 592.902, 698.078 501.820, 663.418 504.525, 651.740 512.133, 634.289 "
fill = "none" stroke = "black"/>
</g>
<g>
<polygon points = "187.587, 426.820 296.957, 399.689 311.092, 408.805 314.565, 438.252 256.422, 451.047 210.927, 447.351 "
fill = "none" stroke = "black"/>
</g>
<g>
<polygon points = ""
fill = "none" stroke = "black"/>
</g>
<g>
<polygon points = "495.128, 263.165 509.021, 237.358 557.862, 249.177 536.117, 289.452 "
fill = "none" stroke = "black"/>
</g>
<g>
<polygon points = "765.213, 726.461 755.137, 701.888 809.127, 627.763 1000.000, 623.743 1000.000, 942.035 "
fill = "none" stroke = "black"/>
</g>
<g>
<polygon points = ""
fill = "none" stroke = "black"/>
</g>
<g>
<polygon points = "489.448, 730.104 479.715, 709.176 492.258, 673.575 501.820, 663.418 592.902, 698.078 609.001, 721.908 608.970, 721.962 "
fill = "none" stroke = "black"/>
</g>
<g>
<polygon points = ""
fill = "none" stroke = "black"/>
</g>
<g>
<polygon points = "480.848, 458.624 495.218, 434.220 569.468, 454.426 570.911, 458.226 518.480, 485.253 507.315, 485.323 "
fill = "none" stroke = "black"/>
</g>
<g>
<polygon points = "832.191, 526.935 762.299, 547.337 742.944, 535.301 755.658, 466.509 "
fill = "none" stroke = "black"/>
</g>
<g>
<polygon points = "762.299, 547.337 759.975, 559.335 703.986, 632.338 693.619, 624.375 681.375, 595.924 691.916, 549.813 716.613, 528.677 742.944, 535.301 "
fill = "none" stroke = "black"/>
</g>
<g>
<polygon points = "237.595, 507.961 251.702, 506.123 264.855, 506.441 290.647, 546.889 284.802, 592.900 268.608, 614.291 232.667, 625.496 154.300, 599.604 "
fill = "none" stroke = "black"/>
</g>
<g>
<polygon points = ""
fill = "none" stroke = "black"/>
</g>
<g>
<polygon points = ""
fill = "none" stroke = "black"/>
</g>
<g>
<polygon points = ""
fill = "none" stroke = "black"/>
</g>
<g>
<polygon points = ""
fill = "none" stroke = "black"/>
</g>
<g>
<polygon points = ""
fill = "none" stroke = "black"/>
</g>
<g>
<polygon points = ""
fill = "none" stroke = "black"/>
</g>
<g>
<polygon points = ""
fill = "none" stroke = "black"/>
</g>
<g>
<polygon points = ""
fill = "none" stroke = "black"/>
</g>
<g>
<polygon points = ""
fill = "none" stroke = "black"/>
</g>
<g>
<polygon points = ""
fill = "none" stroke = "black"/>
</g>
<g>
<polygon points = ""
fill = "none" stroke = "black"/>
</g>
<g>
<polygon points = ""
fill = "none" stroke = "black"/>
</g>
<g>
<polygon points = "363.521, 715.988 358.644, 698.920 388.351, 646.619 407.715, 666.070 422.052, 716.191 412.493, 723.017 "
fill = "none" stroke = "black"/>
</g>
<g>
<polygon points = ""
fill = "none" stroke = "black"/>
</g>
<g>
<polygon points = ""
fill = "none" stroke = "black"/>
</g>
<g>
<polygon points = ""
fill = "none" stroke = "black"/>
</g>
<g>
<polygon points = "566.890, 243.564 689.311, 158.642 683.098, 190.533 640.357, 270.548 602.969, 286.209 565.671, 246.867 "
fill = "none" stroke = "black"/>
</g>
<g>
<polygon points = ""
fill = "none" stroke = "black"/>
</g>
<g>
<polygon points = "445.924, 351.350 488.873, 354.752 464.446, 395.243 438.587, 374.031 "
fill = "none" stroke = "black"/>
</g>
<g>
<polygon points = ""
fill = "none" stroke = "black"/>
</g>
<g>
<polygon points = ""
fill = "none" stroke = "black"/>
</g>
<g>
<polygon points = "282.594, 286.758 326.670, 195.869 371.972, 256.429 373.246, 259.275 350.497, 281.735 "
fill = "none" stroke = "black"/>
</g>
<g>
<polygon points = "506.891, 605.321 458.165, 579.247 467.462, 529.983 477.963, 529.042 531.826, 553.098 "
fill = "none" stroke = "black"/>
</g>
<g>
<polygon points = ""
fill = "none" stroke = "black"/>
</g>
<g>
<polygon points = ""
fill = "none" stroke = "black"/>
</g>
<g>
<polygon points = ""
fill = "none" stroke = "black"/>
</g>
<g>
<polygon points = ""
fill = "none" stroke = "black"/>
</g>
<g>
<polygon points = "439.374, 512.935 442.201, 512.436 467.462, 529.983 458.165, 579.247 425.626, 596.837 425.201, 596.941 401.464, 566.581 "
fill = "none" stroke = "black"/>
</g>
<g>
<polygon points = "693.619, 624.375 703.986, 632.338 710.834, 647.246 636.708, 715.621 633.547, 715.686 636.168, 682.946 653.677, 630.224 "
fill = "none" stroke = "black"/>
</g>
<g>
<polygon points = ""
fill = "none" stroke = "black"/>
</g>
<g>
<polygon points = ""
fill = "none" stroke = "black"/>
</g>
<g>
<polygon points = ""
fill = "none" stroke = "black"/>
</g>
<g>
<polygon points = ""
fill = "none" stroke = "black"/>
</g>
<g>
<polygon points = ""
fill = "none" stroke = "black"/>
</g>
<g>
<polygon points = ""
fill = "none" stroke = "black"/>
</g>
<g>
<polygon points = ""
fill = "none" stroke = "black"/>
</g>
<g>
<polygon points = ""
fill = "none" stroke = "black"/>
</g>
<g>
<polygon points = ""
fill = "none" stroke = "black"/>
</g>
<g>
<polygon points = ""
fill = "none" stroke = "black"/>
</g>
<g>
<polygon points = ""
fill = "none" stroke = "black"/>
</g>
<g>
<polygon points = ""
fill = "none" stroke = "black"/>
</g>
<g>
<polygon points = "154.300, 599.604 232.667, 625.496 241.116, 654.014 223.891, 755.484 0.000, 934.881 0.000, 601.846 "
fill = "none" stroke = "black"/>
</g>
<g>
<polygon points = ""
fill = "none" stroke = "black"/>
</g>
<g>
<polygon points = "458.165, 579.247 506.891, 605.321 512.133, 634.289 504.525, 651.740 425.626, 596.837 "
fill = "none" stroke = "black"/>
</g>
<g>
<polygon points = ""
fill = "none" stroke = "black"/>
</g>
<g>
<polygon points = "324.827, 457.848 394.723, 444.330 400.991, 457.382 405.266, 500.889 354.422, 514.176 348.687, 509.320 "
fill = "none" stroke = "black"/>
</g>
<g>
<polygon points = "232.298, 308.050 275.326, 290.815 278.262, 290.009 343.387, 345.185 345.362, 351.711 333.870, 388.065 311.092, 408.805 296.957, 399.689 "
fill = "none" stroke = "black"/>
</g>
<g>
<polygon points = "944.662, 1000.000 678.930, 763.864 673.842, 738.191 765.213, 726.461 1000.000, 942.035 1000.000, 1000.000 "
fill = "none" stroke = "black"/>
</g>
<g>
<polygon points = ""
fill = "none" stroke = "black"/>
</g>
<g>
<polygon points = ""
fill = "none" stroke = "black"/>
</g>
<g>
<polygon points = ""
fill = "none" stroke = "black"/>
</g>
<g>
<polygon points = ""
fill = "none" stroke = "black"/>
</g>
<g>
<polygon points = ""
fill = "none" stroke = "black"/>
</g>
<g>
<polygon points = "692.837, 149.445 689.311, 158.642 566.890, 243.564 512.903, 0.000 731.088, 0.000 "
fill = "none" stroke = "black"/>
</g>
<g>
<polygon points = "607.335, 617.812 606.359, 609.412 625.108, 574.652 681.375, 595.924 693.619, 624.375 653.677, 630.224 628.046, 626.866 "
fill = "none" stroke = "black"/>
</g>
<g>
<polygon points = "260.956, 751.093 275.696, 693.237 298.104, 704.325 317.652, 750.037 309.957, 758.279 267.128, 752.411 "
fill = "none" stroke = "black"/>
</g>
<g>
<polygon points = ""
fill = "none" stroke = "black"/>
</g>
<g>
<polygon points = "772.523, 365.896 757.316, 383.063 722.575, 371.132 723.098, 363.908 737.942, 349.975 751.337, 351.767 "
fill = "none" stroke = "black"/>
</g>
<g>
<polygon points = ""
fill = "none" stroke = "black"/>
</g>
<g>
<polygon points = ""
fill = "none" stroke = "black"/>
</g>
<g>
<polygon points = ""
fill = "none" stroke = "black"/>
</g>
<g>
<polygon points = ""
fill = "none" stroke = "black"/>
</g>
<g>
<polygon points = ""
fill = "none" stroke = "black"/>
</g>
<g>
<polygon points = ""
fill = "none" stroke = "black"/>
</g>
<g>
<polygon points = "329.237, 675.820 319.511, 640.948 367.101, 629.363 386.503, 637.738 388.351, 646.619 358.644, 698.920 "
fill = "none" stroke = "black"/>
</g>
<g>
<polygon points = ""
fill = "none" stroke = "black"/>
</g>
<g>
<polygon points = "298.104, 704.325 329.237, 675.820 358.644, 698.920 363.521, 715.988 338.800, 743.824 317.652, 750.037 "
fill = "none" stroke = "black"/>
</g>
<g>
<polygon points = ""
fill = "none" stroke = "black"/>
</g>
<g>
<polygon points = ""
fill = "none" stroke = "black"/>
</g>
<g>
<polygon points = "333.870, 388.065 345.362, 351.711 397.892, 343.655 407.936, 380.837 400.483, 395.649 "
fill = "none" stroke = "black"/>
</g>
<g>
<polygon points = ""
fill = "none" stroke = "black"/>
</g>
<g>
<polygon points = "495.218, 434.220 492.230, 416.874 556.693, 361.406 568.701, 397.991 569.468, 454.426 "
fill = "none" stroke = "black"/>
</g>
<g>
<polygon points = ""
fill = "none" stroke = "black"/>
</g>
<g>
<polygon points = ""
fill = "none" stroke = "black"/>
</g>
<g>
<polygon points = "373.246, 259.275 371.972, 256.429 457.770, 91.763 428.404, 274.692 "
fill = "none" stroke = "black"/>
</g>
<g>
<polygon points = "311.092, 408.805 333.870, 388.065 400.483, 395.649 410.375, 423.630 394.723, 444.330 324.827, 457.848 322.953, 456.446 314.565, 438.252 "
fill = "none" stroke = "black"/>
</g>
<g>
<polygon points = ""
fill = "none" stroke = "black"/>
</g>
<g>
<polygon points = "492.230, 416.874 495.218, 434.220 480.848, 458.624 458.988, 464.609 434.198, 427.199 465.401, 400.696 "
fill = "none" stroke = "black"/>
</g>
<g>
<polygon points = ""
fill = "none" stroke = "black"/>
</g>
<g>
<polygon points = ""
fill = "none" stroke = "black"/>
</g>
<g>
<polygon points = ""
fill = "none" stroke = "black"/>
</g>
<g>
<polygon points = ""
fill = "none" stroke = "black"/>
</g>
<g>
<polygon points = ""
fill = "none" stroke = "black"/>
</g>
<g>
<polygon points = "668.076, 390.265 667.950, 390.247 667.561, 388.811 669.909, 344.292 671.496, 341.930 689.651, 338.606 723.098, 363.908 722.575, 371.132 716.173, 379.117 702.074, 387.731 "
fill = "none" stroke = "black"/>
</g>
<g>
<polygon points = "223.891, 755.484 241.116, 654.014 275.696, 693.237 260.956, 751.093 "
fill = "none" stroke = "black"/>
</g>
<g>
<polygon points = ""
fill = "none" stroke = "black"/>
</g>
<g>
<polygon points = ""
fill = "none" stroke = "black"/>
</g>
<g>
<polygon points = "633.547, 715.686 609.001, 721.908 592.902, 698.078 593.067, 638.638 607.335, 617.812 628.046, 626.866 636.168, 682.946 "
fill = "none" stroke = "black"/>
</g>
<g>
<polygon points = "401.464, 566.581 425.201, 596.941 418.188, 612.211 386.503, 637.738 367.101, 629.363 356.551, 569.243 365.173, 557.760 "
fill = "none" stroke = "black"/>
</g>
<g>
<polygon points = ""
fill = "none" stroke = "black"/>
</g>
<g>
<polygon points = ""
fill = "none" stroke = "black"/>
</g>
<g>
<polygon points = ""
fill = "none" stroke = "black"/>
</g>
<g>
<polygon points = "703.986, 632.338 759.975, 559.335 783.382, 619.525 722.576, 654.334 710.834, 647.246 "
fill = "none" stroke = "black"/>
</g>
<g>
<polygon points = ""
fill = "none" stroke = "black"/>
</g>
<g>
<polygon points = ""
fill = "none" stroke = "black"/>
</g>
<g>
<polygon points = "628.325, 537.144 681.627, 505.125 703.010, 505.256 716.613, 528.677 691.916, 549.813 "
fill = "none" stroke = "black"/>
</g>
<g>
<polygon points = "667.950, 390.247 668.076, 390.265 741.304, 441.700 702.601, 465.103 656.814, 440.970 658.827, 410.660 "
fill = "none" stroke = "black"/>
</g>
<g>
<polygon points = ""
fill = "none" stroke = "black"/>
</g>
<g>
<polygon points = "467.462, 529.983 442.201, 512.436 452.360, 475.700 458.988, 464.609 480.848, 458.624 507.315, 485.323 477.963, 529.042 "
fill = "none" stroke = "black"/>
</g>
<g>
<polygon points = "434.884, 285.309 462.877, 288.616 511.906, 339.887 488.873, 354.752 445.924, 351.350 424.860, 306.645 "
fill = "none" stroke = "black"/>
</g>
<g>
<polygon points = ""
fill = "none" stroke = "black"/>
</g>
<g>
<polygon points = ""
fill = "none" stroke = "black"/>
</g>
<g>
<polygon points = "809.380, 357.621 766.887, 305.597 766.637, 286.987 1000.000, 134.930 1000.000, 394.245 "
fill = "none" stroke = "black"/>
</g>
<g>
<polygon points = ""
fill = "none" stroke = "black"/>
</g>
<g>
<polygon points = "571.817, 591.931 606.359, 609.412 607.335, 617.812 593.067, 638.638 533.931, 629.401 "
fill = "none" stroke = "black"/>
</g>
<g>
<polygon points = ""
fill = "none" stroke = "black"/>
</g>
<g>
<polygon points = "397.892, 343.655 412.578, 317.347 424.860, 306.645 445.924, 351.350 438.587, 374.031 407.936, 380.837 "
fill = "none" stroke = "black"/>
</g>
<g>
<polygon points = ""
fill = "none" stroke = "black"/>
</g>
<g>
<polygon points = "689.651, 338.606 716.747, 324.891 737.942, 349.975 723.098, 363.908 "
fill = "none" stroke = "black"/>
</g>
<g>
<polygon points = "405.266, 500.889 400.991, 457.382 452.360, 475.700 442.201, 512.436 439.374, 512.935 "
fill = "none" stroke = "black"/>
</g>
<g>
<polygon points = "232.298, 308.050 296.957, 399.689 187.587, 426.820 0.000, 348.301 0.000, 280.991 "
fill = "none" stroke = "black"/>
</g>
<g>
<polygon points = ""
fill = "none" stroke = "black"/>
</g>
<g>
<polygon points = "809.127, 627.763 783.382, 619.525 759.975, 559.335 762.299, 547.337 832.191, 526.935 1000.000, 506.239 1000.000, 623.743 "
fill = "none" stroke = "black"/>
</g>
<g>
<polygon points = "667.149, 311.539 671.496, 341.930 669.909, 344.292 585.413, 331.049 602.969, 286.209 640.357, 270.548 "
fill = "none" stroke = "black"/>
</g>
<g>
<polygon points = "668.076, 390.265 702.074, 387.731 745.712, 419.975 747.922, 439.533 747.814, 439.652 741.304, 441.700 "
fill = "none" stroke = "black"/>
</g>
<g>
<polygon points = ""
fill = "none" stroke = "black"/>
</g>
<g>
<polygon points = ""
fill = "none" stroke = "black"/>
</g>
<g>
<polygon points = "264.855, 506.441 322.953, 456.446 324.827, 457.848 348.687, 509.320 290.647, 546.889 "
fill = "none" stroke = "black"/>
</g>
<g>
<polygon points = ""
fill = "none" stroke = "black"/>
</g>
<g>
<polygon points = ""
fill = "none" stroke = "black"/>
</g>
<g>
<polygon points = "326.670, 195.869 282.594, 286.758 278.262, 290.009 275.326, 290.815 243.138, 0.000 312.778, 0.000 "
fill = "none" stroke = "black"/>
</g>
<g>
<polygon points = ""
fill = "none" stroke = "black"/>
</g>
<g>
<polygon points = "350.497, 281.735 373.246, 259.275 428.404, 274.692 434.884, 285.309 424.860, 306.645 412.578, 317.347 358.956, 310.164 "
fill = "none" stroke = "black"/>
</g>
<g>
<polygon points = "681.627, 505.125 628.325, 537.144 619.729, 537.477 597.282, 514.022 597.797, 483.210 616.744, 473.802 "
fill = "none" stroke = "black"/>
</g>
<g>
<polygon points = "275.326, 290.815 232.298, 308.050 0.000, 280.991 0.000, 0.000 243.138, 0.000 "
fill = "none" stroke = "black"/>
</g>
<g>
<polygon points = "683.098, 190.533 689.311, 158.642 692.837, 149.445 760.819, 284.341 734.097, 286.650 707.431, 268.094 "
fill = "none" stroke = "black"/>
</g>
<g>
<polygon points = ""
fill = "none" stroke = "black"/>
</g>
<g>
<polygon points = "462.877, 288.616 495.128, 263.165 536.117, 289.452 541.047, 346.136 511.906, 339.887 "
fill = "none" stroke = "black"/>
</g>
<g>
<polygon points = ""
fill = "none" stroke = "black"/>
</g>
<g>
<polygon points = "747.922, 439.533 745.712, 419.975 749.519, 401.292 757.316, 383.063 772.523, 365.896 809.380, 357.621 1000.000, 394.245 1000.000, 417.158 "
fill = "none" stroke = "black"/>
</g>
<g>
<polygon points = ""
fill = "none" stroke = "black"/>
</g>
<g>
<polygon points = "702.601, 465.103 703.010, 505.256 681.627, 505.125 616.744, 473.802 656.814, 440.970 "
fill = "none" stroke = "black"/>
</g>
<g>
<polygon points = ""
fill = "none" stroke = "black"/>
</g>
<g>
<polygon points = "566.890, 243.564 565.671, 246.867 557.862, 249.177 509.021, 237.358 458.942, 86.410 458.043, 0.000 512.903, 0.000 "
fill = "none" stroke = "black"/>
</g>
<g>
<polygon points = ""
fill = "none" stroke = "black"/>
</g>
<g>
<polygon points = "766.887, 305.597 749.921, 318.309 719.681, 320.136 719.672, 319.949 734.097, 286.650 760.819, 284.341 766.637, 286.987 "
fill = "none" stroke = "black"/>
</g>
<g>
<polygon points = ""
fill = "none" stroke = "black"/>
</g>
<g>
<polygon points = "363.521, 715.988 412.493, 723.017 409.157, 815.910 338.800, 743.824 "
fill = "none" stroke = "black"/>
</g>
<g>
<polygon points = ""
fill = "none" stroke = "black"/>
</g>
<g>
<polygon points = ""
fill = "none" stroke = "black"/>
</g>
<g>
<polygon points = "667.149, 311.539 640.357, 270.548 683.098, 190.533 707.431, 268.094 700.607, 289.193 "
fill = "none" stroke = "black"/>
</g>
<g>
<polygon points = ""
fill = "none" stroke = "black"/>
</g>
<g>
<polygon points = "187.587, 426.820 210.927, 447.351 237.595, 507.961 154.300, 599.604 0.000, 601.846 0.000, 348.301 "
fill = "none" stroke = "black"/>
</g>
<g>
<polygon points = "223.891, 755.484 260.956, 751.093 267.128, 752.411 279.547, 1000.000 0.000, 1000.000 0.000, 934.881 "
fill = "none" stroke = "black"/>
</g>
<g>
<polygon points = ""
fill = "none" stroke = "black"/>
</g>
<g>
<polygon points = ""
fill = "none" stroke = "black"/>
</g>
<g>
<polygon points = "549.424, 549.558 571.817, 591.931 533.931, 629.401 512.133, 634.289 506.891, 605.321 531.826, 553.098 535.596, 551.487 "
fill = "none" stroke = "black"/>
</g>
<g>
<polygon points = "628.325, 537.144 691.916, 549.813 681.375, 595.924 625.108, 574.652 619.729, 537.477 "
fill = "none" stroke = "black"/>
</g>
<g>
<polygon points = ""
fill = "none" stroke = "black"/>
</g>
<g>
<polygon points = "405.266, 500.889 439.374, 512.935 401.464, 566.581 365.173, 557.760 354.422, 514.176 "
fill = "none" stroke = "black"/>
</g>
<g>
<polygon points = ""
fill = "none" stroke = "black"/>
</g>
<g>
<polygon points = ""
fill = "none" stroke = "black"/>
</g>
<g>
<polygon points = ""
fill = "none" stroke = "black"/>
</g>
<g>
<polygon points = ""
fill = "none" stroke = "black"/>
</g>
<g>
<polygon points = ""
fill = "none" stroke = "black"/>
</g>
<g>
<polygon points = ""
fill = "none" stroke = "black"/>
</g>
<g>
<polygon points = ""
fill = "none" stroke = "black"/>
</g>
<g>
<polygon points = ""
fill = "none" stroke = "black"/>
</g>
<g>
<polygon points = ""
fill = "none" stroke = "black"/>
</g>
<g>
<polygon points = ""
fill = "none" stroke = "black"/>
</g>
<g>
<polygon points = ""
fill = "none" stroke = "black"/>
</g>
<g>
<polygon points = ""
fill = "none" stroke = "black"/>
</g>
<g>
<polygon points = ""
fill = "none" stroke = "black"/>
</g>
<g>
<polygon points = "479.715, 709.176 422.052, 716.191 407.715, 666.070 452.270, 655.067 492.258, 673.575 "
fill = "none" stroke = "black"/>
</g>
<g>
<polygon points = ""
fill = "none" stroke = "black"/>
</g>
<g>
<polygon points = ""
fill = "none" stroke = "black"/>
</g>
<g>
<polygon points = ""
fill = "none" stroke = "black"/>
</g>
<g>
<polygon points = ""
fill = "none" stroke = "black"/>
</g>
<g>
<polygon points = ""
fill = "none" stroke = "black"/>
</g>
<g>
<polygon points = ""
fill = "none" stroke = "black"/>
</g>
<g>
<polygon points = ""
fill = "none" stroke = "black"/>
</g>
<g>
<polygon points = "556.693, 361.406 556.824, 356.612 559.344, 355.140 667.561, 388.811 667.950, 390.247 658.827, 410.660 568.701, 397.991 "
fill = "none" stroke = "black"/>
</g>
<g>
<polygon points = ""
fill = "none" stroke = "black"/>
</g>
<g>
<polygon points = "298.104, 704.325 275.696, 693.237 241.116, 654.014 232.667, 625.496 268.608, 614.291 319.511, 640.948 329.237, 675.820 "
fill = "none" stroke = "black"/>
</g>
<g>
<polygon points = "278.262, 290.009 282.594, 286.758 350.497, 281.735 358.956, 310.164 343.387, 345.185 "
fill = "none" stroke = "black"/>
</g>
<g>
<polygon points = ""
fill = "none" stroke = "black"/>
</g>
<g>
<polygon points = ""
fill = "none" stroke = "black"/>
</g>
<g>
<polygon points = ""
fill = "none" stroke = "black"/>
</g>
<g>
<polygon points = ""
fill = "none" stroke = "black"/>
</g>
<g>
<polygon points = "689.651, 338.606 671.496, 341.930 667.149, 311.539 700.607, 289.193 719.672, 319.949 719.681, 320.136 716.747, 324.891 "
fill = "none" stroke = "black"/>
</g>
<g>
<polygon points = ""
fill = "none" stroke = "black"/>
</g>
</svg>
