<svg xmlns = "http://www.w3.org/2000/svg" width = "1000" height = "1000">
<g>
<polygon points = "224.442, 706.840 211.665, 694.208 0.000, 665.792 0.000, 1000.000 174.975, 1000.000 "
fill = "none" stroke = "black"/>
</g>
<g>
<polygon points = "600.398, 322.092 558.092, 581.154 751.365, 760.838 1000.000, 716.655 1000.000, 258.036 "
fill = "none" stroke = "black"/>
</g>
<g>
<polygon points = "533.730, 931.363 722.299, 807.844 751.365, 760.838 558.092, 581.154 305.066, 706.856 "
fill = "none" stroke = "black"/>
</g>
<g>
<polygon points = "0.000, 397.879 221.195, 388.364 340.374, 136.881 284.987, 0.000 0.000, 0.000 "
fill = "none" stroke = "black"/>
</g>
<g>
<polygon points = "340.374, 136.881 600.398, 322.092 1000.000, 258.036 1000.000, 0.000 284.987, 0.000 "
fill = "none" stroke = "black"/>
</g>
<g>
<polygon points = "340.374, 136.881 221.195, 388.364 211.665, 694.208 224.442, 706.840 305.066, 706.856 558.092, 581.154 600.398, 322.092 "
fill = "none" stroke = "black"/>
</g>
<g>
<polygon points = "751.365, 760.838 722.299, 807.844 754.611, 1000.000 1000.000, 1000.000 1000.000, 716.655 "
fill = "none" stroke = "black"/>
</g>
<g>
<polygon points = "221.195, 388.364 0.000, 397.879 0.000, 665.792 211.665, 694.208 "
fill = "none" stroke = "black"/>
</g>
<g>
<polygon points = "722.299, 807.844 533.730, 931.363 519.622, 1000.000 754.611, 1000.000 "
fill = "none" stroke = "black"/>
</g>
<g>
<polygon points = "533.730, 931.363 305.066, 706.856 224.442, 706.840 174.975, 1000.000 519.622, 1000.000 "
fill = "none" stroke = "black"/>
</g>
</svg>
