<svg xmlns = "http://www.w3.org/2000/svg" width = "1000" height = "1000">
<g>
<polygon points = "16.427, 878.377 23.861, 849.088 0.000, 845.828 0.000, 883.907 "
fill = "none" stroke = "black"/>
</g>
<g>
<polygon points = "726.326, 537.604 725.470, 538.797 749.044, 589.969 762.769, 597.497 769.688, 540.478 "
fill = "none" stroke = "black"/>
</g>
<g>
<polygon points = "586.201, 770.759 573.015, 755.065 507.857, 785.910 515.865, 808.984 554.330, 813.185 561.502, 810.817 "
fill = "none" stroke = "black"/>
</g>
<g>
<polygon points = "67.668, 328.855 58.665, 291.516 34.186, 307.465 27.168, 330.281 "
fill = "none" stroke = "black"/>
</g>
<g>
<polygon points = "633.743, 59.081 633.998, 64.502 634.605, 70.409 643.204, 78.609 704.309, 77.907 685.410, 0.000 647.466, 0.000 "
fill = "none" stroke = "black"/>
</g>
<g>
<polygon points = "393.817, 498.124 412.552, 484.296 412.637, 463.893 363.674, 464.699 369.058, 493.173 "
fill = "none" stroke = "black"/>
</g>
<g>
<polygon points = "827.000, 974.966 841.875, 976.275 853.680, 919.189 816.878, 920.465 814.497, 925.030 816.535, 963.347 "
fill = "none" stroke = "black"/>
</g>
<g>
<polygon points = "57.749, 475.377 66.123, 468.716 44.002, 448.039 0.000, 445.869 0.000, 461.425 "
fill = "none" stroke = "black"/>
</g>
<g>
<polygon points = "708.261, 997.926 692.091, 957.286 684.678, 952.756 624.048, 971.071 617.100, 1000.000 708.596, 1000.000 "
fill = "none" stroke = "black"/>
</g>
<g>
<polygon points = "345.913, 936.969 374.855, 994.132 403.544, 968.995 423.415, 931.748 423.447, 930.221 390.253, 887.143 379.951, 881.239 352.656, 887.853 342.341, 896.936 "
fill = "none" stroke = "black"/>
</g>
<g>
<polygon points = "459.277, 337.523 461.508, 335.259 449.359, 303.294 432.879, 304.355 372.569, 310.573 370.026, 324.346 "
fill = "none" stroke = "black"/>
</g>
<g>
<polygon points = "571.893, 56.277 564.933, 66.931 567.517, 75.723 633.998, 64.502 633.743, 59.081 "
fill = "none" stroke = "black"/>
</g>
<g>
<polygon points = "823.694, 507.274 865.552, 485.273 868.526, 424.200 861.853, 422.764 824.192, 464.195 "
fill = "none" stroke = "black"/>
</g>
<g>
<polygon points = "65.056, 368.099 105.761, 394.058 111.245, 322.554 71.297, 333.834 "
fill = "none" stroke = "black"/>
</g>
<g>
<polygon points = "373.161, 282.158 372.569, 310.573 432.879, 304.355 "
fill = "none" stroke = "black"/>
</g>
<g>
<polygon points = "899.653, 174.228 885.206, 182.430 893.642, 264.475 919.667, 287.426 930.481, 252.397 "
fill = "none" stroke = "black"/>
</g>
<g>
<polygon points = "290.376, 964.236 285.025, 944.874 258.577, 930.413 245.191, 929.271 235.037, 983.543 243.723, 1000.000 282.751, 1000.000 "
fill = "none" stroke = "black"/>
</g>
<g>
<polygon points = "779.250, 655.858 763.604, 627.252 734.988, 641.243 730.209, 679.627 779.437, 667.891 "
fill = "none" stroke = "black"/>
</g>
<g>
<polygon points = "608.433, 255.585 627.652, 277.339 627.658, 277.337 663.564, 257.196 659.415, 216.303 657.478, 213.103 605.601, 225.337 "
fill = "none" stroke = "black"/>
</g>
<g>
<polygon points = "964.249, 617.029 916.197, 663.560 920.484, 671.442 939.029, 680.620 943.038, 681.571 988.269, 688.711 1000.000, 689.048 1000.000, 610.663 "
fill = "none" stroke = "black"/>
</g>
<g>
<polygon points = "219.056, 47.353 234.617, 58.562 271.905, 0.000 219.644, 0.000 "
fill = "none" stroke = "black"/>
</g>
<g>
<polygon points = "709.248, 233.890 709.807, 269.421 710.552, 269.786 747.912, 251.651 730.777, 212.137 712.004, 224.218 "
fill = "none" stroke = "black"/>
</g>
<g>
<polygon points = "600.023, 925.051 624.048, 971.071 684.678, 952.756 681.587, 911.320 653.478, 880.972 "
fill = "none" stroke = "black"/>
</g>
<g>
<polygon points = "601.891, 103.949 605.537, 128.548 610.572, 133.817 642.798, 138.941 659.119, 110.128 643.204, 78.609 634.605, 70.409 "
fill = "none" stroke = "black"/>
</g>
<g>
<polygon points = "301.204, 559.852 285.706, 528.337 283.229, 529.316 250.672, 549.546 264.024, 572.969 293.984, 577.805 "
fill = "none" stroke = "black"/>
</g>
<g>
<polygon points = "783.074, 496.569 747.096, 499.486 742.617, 504.079 740.187, 515.581 770.684, 536.556 804.194, 511.663 "
fill = "none" stroke = "black"/>
</g>
<g>
<polygon points = "194.055, 724.163 211.494, 739.470 262.610, 755.560 290.057, 759.273 300.872, 753.737 305.025, 727.618 290.472, 701.370 201.408, 714.353 "
fill = "none" stroke = "black"/>
</g>
<g>
<polygon points = "396.267, 836.439 394.889, 831.968 370.573, 812.082 326.723, 806.341 325.200, 815.626 352.656, 887.853 379.951, 881.239 "
fill = "none" stroke = "black"/>
</g>
<g>
<polygon points = "508.293, 68.527 433.136, 108.988 441.166, 119.633 518.893, 122.109 520.635, 104.969 "
fill = "none" stroke = "black"/>
</g>
<g>
<polygon points = "887.653, 963.454 920.110, 959.786 928.746, 933.604 912.040, 884.749 895.804, 872.757 860.423, 917.196 "
fill = "none" stroke = "black"/>
</g>
<g>
<polygon points = "892.859, 527.797 911.468, 534.445 942.670, 523.896 949.604, 469.993 931.953, 451.931 882.953, 496.519 "
fill = "none" stroke = "black"/>
</g>
<g>
<polygon points = "489.469, 688.297 503.056, 708.684 506.615, 710.031 521.806, 703.613 569.082, 676.318 550.755, 638.298 497.142, 651.131 "
fill = "none" stroke = "black"/>
</g>
<g>
<polygon points = "949.604, 469.993 942.670, 523.896 969.591, 548.026 1000.000, 549.217 1000.000, 463.393 "
fill = "none" stroke = "black"/>
</g>
<g>
<polygon points = "287.035, 878.988 268.675, 884.403 247.179, 911.851 242.499, 925.820 245.191, 929.271 258.577, 930.413 298.657, 888.151 "
fill = "none" stroke = "black"/>
</g>
<g>
<polygon points = "912.040, 884.749 928.746, 933.604 1000.000, 954.031 1000.000, 907.671 "
fill = "none" stroke = "black"/>
</g>
<g>
<polygon points = "556.685, 610.099 492.438, 586.196 485.821, 630.697 487.404, 645.304 497.142, 651.131 550.755, 638.298 "
fill = "none" stroke = "black"/>
</g>
<g>
<polygon points = "325.339, 115.251 333.789, 106.340 323.669, 69.060 239.036, 65.012 237.783, 99.518 264.966, 113.355 "
fill = "none" stroke = "black"/>
</g>
<g>
<polygon points = "496.705, 542.907 523.222, 552.112 535.878, 538.938 527.232, 520.119 "
fill = "none" stroke = "black"/>
</g>
<g>
<polygon points = "928.746, 933.604 920.110, 959.786 968.059, 1000.000 1000.000, 1000.000 1000.000, 954.031 "
fill = "none" stroke = "black"/>
</g>
<g>
<polygon points = "753.823, 254.988 759.155, 253.516 779.692, 234.767 743.007, 193.541 735.077, 200.670 730.777, 212.137 747.912, 251.651 "
fill = "none" stroke = "black"/>
</g>
<g>
<polygon points = "860.423, 917.196 895.804, 872.757 894.960, 859.562 829.812, 858.480 788.708, 867.350 806.798, 911.080 816.878, 920.465 853.680, 919.189 "
fill = "none" stroke = "black"/>
</g>
<g>
<polygon points = "0.000, 289.850 0.000, 362.899 27.168, 330.281 34.186, 307.465 "
fill = "none" stroke = "black"/>
</g>
<g>
<polygon points = "872.318, 423.555 898.174, 376.311 850.169, 336.348 836.060, 342.705 834.078, 401.760 861.853, 422.764 868.526, 424.200 "
fill = "none" stroke = "black"/>
</g>
<g>
<polygon points = "720.332, 288.641 755.502, 287.401 753.823, 254.988 747.912, 251.651 710.552, 269.786 "
fill = "none" stroke = "black"/>
</g>
<g>
<polygon points = "976.075, 81.728 961.297, 93.580 950.710, 160.529 1000.000, 187.684 1000.000, 77.254 "
fill = "none" stroke = "black"/>
</g>
<g>
<polygon points = "284.894, 677.328 265.859, 669.689 204.445, 700.194 201.408, 714.353 290.472, 701.370 "
fill = "none" stroke = "black"/>
</g>
<g>
<polygon points = "339.499, 444.664 334.901, 447.138 332.394, 510.976 343.277, 517.042 347.713, 517.151 369.058, 493.173 363.674, 464.699 "
fill = "none" stroke = "black"/>
</g>
<g>
<polygon points = "606.980, 164.563 610.572, 133.817 605.537, 128.548 587.380, 137.095 590.766, 169.857 "
fill = "none" stroke = "black"/>
</g>
<g>
<polygon points = "426.937, 105.148 387.032, 114.949 397.281, 185.999 406.770, 197.585 445.178, 135.337 441.166, 119.633 433.136, 108.988 "
fill = "none" stroke = "black"/>
</g>
<g>
<polygon points = "251.314, 598.257 295.296, 605.892 293.984, 577.805 264.024, 572.969 "
fill = "none" stroke = "black"/>
</g>
<g>
<polygon points = "569.381, 533.198 575.833, 520.689 568.453, 513.759 529.334, 517.412 527.232, 520.119 535.878, 538.938 "
fill = "none" stroke = "black"/>
</g>
<g>
<polygon points = "245.615, 817.354 246.211, 824.375 280.858, 851.756 325.200, 815.626 326.723, 806.341 307.322, 760.779 300.872, 753.737 290.057, 759.273 "
fill = "none" stroke = "black"/>
</g>
<g>
<polygon points = "184.700, 464.198 199.937, 430.208 126.819, 393.091 125.996, 393.371 162.423, 457.532 177.434, 463.936 "
fill = "none" stroke = "black"/>
</g>
<g>
<polygon points = "816.535, 963.347 814.497, 925.030 780.160, 957.410 777.305, 996.724 778.059, 1000.000 789.174, 1000.000 "
fill = "none" stroke = "black"/>
</g>
<g>
<polygon points = "562.381, 498.475 513.828, 489.419 529.334, 517.412 568.453, 513.759 "
fill = "none" stroke = "black"/>
</g>
<g>
<polygon points = "930.481, 252.397 919.667, 287.426 925.546, 302.929 931.281, 307.004 1000.000, 259.759 1000.000, 193.505 "
fill = "none" stroke = "black"/>
</g>
<g>
<polygon points = "569.950, 89.603 520.635, 104.969 518.893, 122.109 523.768, 133.175 559.544, 125.886 577.729, 97.485 "
fill = "none" stroke = "black"/>
</g>
<g>
<polygon points = "654.925, 163.626 642.798, 138.941 610.572, 133.817 606.980, 164.563 619.569, 177.141 649.052, 179.573 "
fill = "none" stroke = "black"/>
</g>
<g>
<polygon points = "134.994, 745.840 137.495, 779.716 150.061, 812.340 155.406, 814.090 177.902, 813.059 187.047, 802.986 186.871, 791.042 158.411, 732.451 148.623, 730.477 135.009, 745.619 "
fill = "none" stroke = "black"/>
</g>
<g>
<polygon points = "733.530, 896.494 747.474, 873.013 699.393, 824.828 684.750, 850.277 724.966, 896.330 "
fill = "none" stroke = "black"/>
</g>
<g>
<polygon points = "12.207, 729.823 54.705, 764.906 135.009, 745.619 148.623, 730.477 121.017, 672.693 59.469, 695.646 "
fill = "none" stroke = "black"/>
</g>
<g>
<polygon points = "33.761, 614.731 39.168, 607.213 43.987, 592.445 41.487, 564.958 0.000, 533.863 0.000, 632.918 "
fill = "none" stroke = "black"/>
</g>
<g>
<polygon points = "79.847, 238.922 59.737, 194.504 0.000, 194.038 0.000, 289.850 34.186, 307.465 58.665, 291.516 "
fill = "none" stroke = "black"/>
</g>
<g>
<polygon points = "923.302, 763.512 956.039, 760.922 949.799, 749.745 920.398, 760.843 "
fill = "none" stroke = "black"/>
</g>
<g>
<polygon points = "202.574, 630.529 196.382, 621.369 125.050, 660.698 122.711, 666.071 121.017, 672.693 148.623, 730.477 158.411, 732.451 194.055, 724.163 201.408, 714.353 204.445, 700.194 "
fill = "none" stroke = "black"/>
</g>
<g>
<polygon points = "917.220, 364.131 933.074, 311.301 931.281, 307.004 925.546, 302.929 866.134, 319.493 850.169, 336.348 898.174, 376.311 "
fill = "none" stroke = "black"/>
</g>
<g>
<polygon points = "178.491, 351.423 197.683, 322.992 118.638, 290.842 116.360, 316.301 165.628, 354.977 "
fill = "none" stroke = "black"/>
</g>
<g>
<polygon points = "381.777, 657.047 408.649, 640.134 417.057, 629.329 401.059, 584.122 367.569, 580.044 357.776, 585.547 340.878, 623.084 "
fill = "none" stroke = "black"/>
</g>
<g>
<polygon points = "472.646, 860.069 471.930, 873.786 519.585, 860.064 508.665, 836.921 "
fill = "none" stroke = "black"/>
</g>
<g>
<polygon points = "558.346, 185.141 590.766, 169.857 587.380, 137.095 578.090, 140.234 "
fill = "none" stroke = "black"/>
</g>
<g>
<polygon points = "571.893, 56.277 633.743, 59.081 647.466, 0.000 569.807, 0.000 "
fill = "none" stroke = "black"/>
</g>
<g>
<polygon points = "541.643, 844.881 571.896, 886.082 587.119, 850.821 561.502, 810.817 554.330, 813.185 "
fill = "none" stroke = "black"/>
</g>
<g>
<polygon points = "969.591, 548.026 966.945, 554.568 964.249, 617.029 1000.000, 610.663 1000.000, 549.217 "
fill = "none" stroke = "black"/>
</g>
<g>
<polygon points = "109.532, 415.461 132.979, 452.278 162.423, 457.532 125.996, 393.371 107.662, 396.578 105.073, 403.214 "
fill = "none" stroke = "black"/>
</g>
<g>
<polygon points = "250.438, 483.998 206.808, 502.216 283.229, 529.316 285.706, 528.337 286.126, 527.299 267.950, 492.619 "
fill = "none" stroke = "black"/>
</g>
<g>
<polygon points = "458.506, 24.134 441.866, 46.107 477.928, 51.849 508.030, 47.677 511.822, 0.000 508.363, 0.000 "
fill = "none" stroke = "black"/>
</g>
<g>
<polygon points = "102.719, 813.268 117.723, 826.793 150.061, 812.340 137.495, 779.716 "
fill = "none" stroke = "black"/>
</g>
<g>
<polygon points = "353.690, 339.326 353.738, 338.008 307.087, 331.416 306.209, 332.733 289.957, 386.127 327.885, 393.972 "
fill = "none" stroke = "black"/>
</g>
<g>
<polygon points = "165.628, 354.977 116.360, 316.301 111.245, 322.554 105.761, 394.058 107.662, 396.578 125.996, 393.371 126.819, 393.091 "
fill = "none" stroke = "black"/>
</g>
<g>
<polygon points = "657.941, 208.962 649.052, 179.573 619.569, 177.141 593.168, 215.845 605.601, 225.337 657.478, 213.103 "
fill = "none" stroke = "black"/>
</g>
<g>
<polygon points = "201.405, 503.633 200.788, 505.941 242.379, 550.133 250.672, 549.546 283.229, 529.316 206.808, 502.216 "
fill = "none" stroke = "black"/>
</g>
<g>
<polygon points = "413.527, 791.258 378.103, 790.083 370.573, 812.082 394.889, 831.968 "
fill = "none" stroke = "black"/>
</g>
<g>
<polygon points = "72.321, 65.761 50.085, 58.167 0.000, 92.607 0.000, 194.038 59.737, 194.504 67.106, 187.665 82.789, 87.049 "
fill = "none" stroke = "black"/>
</g>
<g>
<polygon points = "443.830, 871.524 428.886, 835.488 396.267, 836.439 379.951, 881.239 390.253, 887.143 "
fill = "none" stroke = "black"/>
</g>
<g>
<polygon points = "966.945, 554.568 910.996, 604.004 904.239, 635.188 915.070, 662.664 916.197, 663.560 964.249, 617.029 "
fill = "none" stroke = "black"/>
</g>
<g>
<polygon points = "158.864, 126.716 111.673, 84.209 82.789, 87.049 67.106, 187.665 145.593, 173.020 166.817, 141.084 "
fill = "none" stroke = "black"/>
</g>
<g>
<polygon points = "97.052, 810.349 78.473, 805.962 82.646, 852.658 90.694, 862.351 103.897, 869.870 117.327, 866.220 117.723, 826.793 102.719, 813.268 "
fill = "none" stroke = "black"/>
</g>
<g>
<polygon points = "49.329, 636.220 122.711, 666.071 125.050, 660.698 114.253, 639.177 39.168, 607.213 33.761, 614.731 "
fill = "none" stroke = "black"/>
</g>
<g>
<polygon points = "215.146, 865.244 228.535, 873.027 268.675, 884.403 287.035, 878.988 280.858, 851.756 246.211, 824.375 "
fill = "none" stroke = "black"/>
</g>
<g>
<polygon points = "765.299, 599.851 828.777, 574.901 833.174, 547.146 818.996, 515.534 804.194, 511.663 770.684, 536.556 769.688, 540.478 762.769, 597.497 "
fill = "none" stroke = "black"/>
</g>
<g>
<polygon points = "330.351, 561.478 357.776, 585.547 367.569, 580.044 373.052, 536.163 347.713, 517.151 343.277, 517.042 "
fill = "none" stroke = "black"/>
</g>
<g>
<polygon points = "828.185, 37.654 793.760, 69.010 801.404, 86.372 817.070, 84.468 844.013, 80.134 853.693, 66.901 "
fill = "none" stroke = "black"/>
</g>
<g>
<polygon points = "601.705, 771.439 630.927, 810.005 700.528, 808.078 718.644, 777.891 649.732, 737.295 "
fill = "none" stroke = "black"/>
</g>
<g>
<polygon points = "659.119, 110.128 715.295, 123.493 734.693, 116.401 734.244, 112.308 704.309, 77.907 643.204, 78.609 "
fill = "none" stroke = "black"/>
</g>
<g>
<polygon points = "261.901, 150.289 264.966, 113.355 237.783, 99.518 212.125, 122.782 222.834, 142.440 "
fill = "none" stroke = "black"/>
</g>
<g>
<polygon points = "488.107, 463.017 450.467, 500.839 447.867, 506.667 477.624, 535.369 503.091, 480.026 501.537, 467.901 "
fill = "none" stroke = "black"/>
</g>
<g>
<polygon points = "553.616, 189.823 562.942, 207.595 593.168, 215.845 619.569, 177.141 606.980, 164.563 590.766, 169.857 558.346, 185.141 "
fill = "none" stroke = "black"/>
</g>
<g>
<polygon points = "770.684, 536.556 740.187, 515.581 726.326, 537.604 769.688, 540.478 "
fill = "none" stroke = "black"/>
</g>
<g>
<polygon points = "978.355, 390.255 970.250, 335.025 933.074, 311.301 917.220, 364.131 952.937, 401.031 "
fill = "none" stroke = "black"/>
</g>
<g>
<polygon points = "412.510, 218.456 432.634, 216.825 466.838, 163.377 445.178, 135.337 406.770, 197.585 "
fill = "none" stroke = "black"/>
</g>
<g>
<polygon points = "672.333, 301.322 678.495, 306.445 701.337, 313.291 684.651, 271.287 679.642, 270.570 "
fill = "none" stroke = "black"/>
</g>
<g>
<polygon points = "967.696, 39.057 976.075, 81.728 1000.000, 77.254 1000.000, 39.521 "
fill = "none" stroke = "black"/>
</g>
<g>
<polygon points = "868.580, 668.351 788.627, 724.704 785.690, 737.061 784.774, 752.205 813.505, 771.895 853.006, 778.774 885.634, 745.091 920.484, 671.442 916.197, 663.560 915.070, 662.664 "
fill = "none" stroke = "black"/>
</g>
<g>
<polygon points = "561.897, 492.805 506.315, 464.364 501.537, 467.901 503.091, 480.026 513.828, 489.419 562.381, 498.475 "
fill = "none" stroke = "black"/>
</g>
<g>
<polygon points = "131.241, 543.968 102.151, 558.234 88.438, 595.192 110.086, 614.408 141.340, 549.437 "
fill = "none" stroke = "black"/>
</g>
<g>
<polygon points = "577.729, 97.485 559.544, 125.886 578.090, 140.234 587.380, 137.095 605.537, 128.548 601.891, 103.949 "
fill = "none" stroke = "black"/>
</g>
<g>
<polygon points = "449.192, 301.976 463.534, 272.439 402.217, 245.733 396.827, 256.739 "
fill = "none" stroke = "black"/>
</g>
<g>
<polygon points = "837.769, 261.038 866.134, 319.493 925.546, 302.929 919.667, 287.426 893.642, 264.475 "
fill = "none" stroke = "black"/>
</g>
<g>
<polygon points = "772.741, 327.357 780.852, 331.226 812.302, 330.652 825.892, 258.362 795.665, 271.711 769.967, 305.525 "
fill = "none" stroke = "black"/>
</g>
<g>
<polygon points = "777.305, 996.724 744.459, 968.101 708.261, 997.926 708.596, 1000.000 778.059, 1000.000 "
fill = "none" stroke = "black"/>
</g>
<g>
<polygon points = "930.126, 448.597 872.318, 423.555 868.526, 424.200 865.552, 485.273 882.953, 496.519 931.953, 451.931 "
fill = "none" stroke = "black"/>
</g>
<g>
<polygon points = "472.655, 961.663 482.336, 933.663 467.992, 902.128 423.447, 930.221 423.415, 931.748 "
fill = "none" stroke = "black"/>
</g>
<g>
<polygon points = "740.187, 515.581 742.617, 504.079 704.855, 491.140 684.260, 496.124 668.814, 507.250 722.192, 538.447 725.470, 538.797 726.326, 537.604 "
fill = "none" stroke = "black"/>
</g>
<g>
<polygon points = "671.273, 301.815 664.440, 303.976 640.859, 331.666 642.877, 339.824 669.532, 320.998 "
fill = "none" stroke = "black"/>
</g>
<g>
<polygon points = "192.605, 50.423 175.601, 74.393 193.767, 124.088 212.125, 122.782 237.783, 99.518 239.036, 65.012 238.096, 62.928 234.617, 58.562 219.056, 47.353 "
fill = "none" stroke = "black"/>
</g>
<g>
<polygon points = "884.511, 65.242 853.693, 66.901 844.013, 80.134 839.779, 108.662 902.523, 151.466 "
fill = "none" stroke = "black"/>
</g>
<g>
<polygon points = "528.477, 875.996 567.693, 906.254 571.896, 886.082 541.643, 844.881 522.079, 861.375 "
fill = "none" stroke = "black"/>
</g>
<g>
<polygon points = "458.506, 24.134 508.363, 0.000 419.602, 0.000 "
fill = "none" stroke = "black"/>
</g>
<g>
<polygon points = "160.384, 552.137 198.002, 614.266 206.751, 609.267 242.379, 550.133 200.788, 505.941 "
fill = "none" stroke = "black"/>
</g>
<g>
<polygon points = "305.472, 449.138 299.197, 465.035 309.600, 513.425 332.394, 510.976 334.901, 447.138 "
fill = "none" stroke = "black"/>
</g>
<g>
<polygon points = "829.468, 575.570 905.619, 564.822 911.468, 534.445 892.859, 527.797 833.174, 547.146 828.777, 574.901 "
fill = "none" stroke = "black"/>
</g>
<g>
<polygon points = "460.754, 226.409 498.462, 199.341 477.762, 167.005 466.838, 163.377 432.634, 216.825 "
fill = "none" stroke = "black"/>
</g>
<g>
<polygon points = "378.103, 790.083 374.235, 768.013 307.322, 760.779 326.723, 806.341 370.573, 812.082 "
fill = "none" stroke = "black"/>
</g>
<g>
<polygon points = "987.710, 827.965 1000.000, 876.251 1000.000, 818.833 "
fill = "none" stroke = "black"/>
</g>
<g>
<polygon points = "609.997, 361.904 622.180, 439.376 626.153, 441.231 648.436, 427.640 662.556, 403.793 639.317, 350.685 "
fill = "none" stroke = "black"/>
</g>
<g>
<polygon points = "0.488, 954.039 0.000, 953.861 0.000, 1000.000 42.130, 1000.000 "
fill = "none" stroke = "black"/>
</g>
<g>
<polygon points = "755.502, 287.401 769.967, 305.525 795.665, 271.711 759.155, 253.516 753.823, 254.988 "
fill = "none" stroke = "black"/>
</g>
<g>
<polygon points = "310.368, 629.866 340.878, 623.084 357.776, 585.547 330.351, 561.478 301.204, 559.852 293.984, 577.805 295.296, 605.892 "
fill = "none" stroke = "black"/>
</g>
<g>
<polygon points = "676.962, 321.161 682.735, 335.457 701.365, 313.309 701.337, 313.291 678.495, 306.445 "
fill = "none" stroke = "black"/>
</g>
<g>
<polygon points = "188.150, 204.894 219.556, 183.783 227.151, 166.134 222.834, 142.440 212.125, 122.782 193.767, 124.088 166.817, 141.084 145.593, 173.020 "
fill = "none" stroke = "black"/>
</g>
<g>
<polygon points = "766.228, 144.578 762.405, 138.827 734.693, 116.401 715.295, 123.493 689.255, 153.383 693.693, 169.547 709.322, 190.871 735.077, 200.670 743.007, 193.541 766.846, 157.420 "
fill = "none" stroke = "black"/>
</g>
<g>
<polygon points = "104.532, 980.636 133.117, 943.090 86.815, 894.692 61.880, 909.030 62.308, 929.101 "
fill = "none" stroke = "black"/>
</g>
<g>
<polygon points = "784.628, 396.845 780.852, 331.226 772.741, 327.357 737.314, 341.154 717.227, 376.232 719.306, 378.218 "
fill = "none" stroke = "black"/>
</g>
<g>
<polygon points = "212.996, 772.940 186.871, 791.042 187.047, 802.986 237.122, 813.093 219.280, 776.355 "
fill = "none" stroke = "black"/>
</g>
<g>
<polygon points = "110.086, 614.408 88.438, 595.192 43.987, 592.445 39.168, 607.213 114.253, 639.177 "
fill = "none" stroke = "black"/>
</g>
<g>
<polygon points = "902.043, 51.796 961.297, 93.580 976.075, 81.728 967.696, 39.057 946.188, 0.000 918.949, 0.000 "
fill = "none" stroke = "black"/>
</g>
<g>
<polygon points = "411.815, 738.572 394.280, 694.391 380.566, 686.345 355.863, 706.954 387.509, 748.572 "
fill = "none" stroke = "black"/>
</g>
<g>
<polygon points = "730.742, 772.836 733.292, 771.082 703.859, 699.480 648.598, 712.309 649.732, 737.295 718.644, 777.891 "
fill = "none" stroke = "black"/>
</g>
<g>
<polygon points = "766.846, 157.420 743.007, 193.541 779.692, 234.767 824.809, 227.334 827.732, 216.494 "
fill = "none" stroke = "black"/>
</g>
<g>
<polygon points = "452.706, 748.713 444.668, 695.991 394.280, 694.391 411.815, 738.572 450.177, 757.670 "
fill = "none" stroke = "black"/>
</g>
<g>
<polygon points = "235.037, 983.543 193.524, 958.314 179.679, 982.877 184.986, 1000.000 243.723, 1000.000 "
fill = "none" stroke = "black"/>
</g>
<g>
<polygon points = "157.528, 20.312 192.605, 50.423 219.056, 47.353 219.644, 0.000 154.582, 0.000 "
fill = "none" stroke = "black"/>
</g>
<g>
<polygon points = "271.850, 207.786 275.784, 205.668 263.967, 170.201 227.151, 166.134 219.556, 183.783 "
fill = "none" stroke = "black"/>
</g>
<g>
<polygon points = "198.002, 614.266 160.384, 552.137 141.340, 549.437 110.086, 614.408 114.253, 639.177 125.050, 660.698 196.382, 621.369 "
fill = "none" stroke = "black"/>
</g>
<g>
<polygon points = "587.119, 850.821 623.318, 846.131 630.927, 810.005 601.705, 771.439 586.201, 770.759 561.502, 810.817 "
fill = "none" stroke = "black"/>
</g>
<g>
<polygon points = "808.544, 794.039 829.812, 858.480 894.960, 859.562 897.743, 843.691 853.006, 778.774 813.505, 771.895 "
fill = "none" stroke = "black"/>
</g>
<g>
<polygon points = "988.269, 688.711 978.233, 763.131 979.566, 777.049 1000.000, 781.374 1000.000, 689.048 "
fill = "none" stroke = "black"/>
</g>
<g>
<polygon points = "203.891, 869.804 226.322, 921.314 242.499, 925.820 247.179, 911.851 228.535, 873.027 215.146, 865.244 "
fill = "none" stroke = "black"/>
</g>
<g>
<polygon points = "253.757, 410.763 254.168, 409.958 250.501, 385.631 217.286, 322.332 203.768, 318.050 197.683, 322.992 178.491, 351.423 216.652, 415.550 "
fill = "none" stroke = "black"/>
</g>
<g>
<polygon points = "712.004, 224.218 730.777, 212.137 735.077, 200.670 709.322, 190.871 675.027, 199.570 657.941, 208.962 657.478, 213.103 659.415, 216.303 "
fill = "none" stroke = "black"/>
</g>
<g>
<polygon points = "664.913, 258.012 679.642, 270.570 684.651, 271.287 709.807, 269.421 709.248, 233.890 "
fill = "none" stroke = "black"/>
</g>
<g>
<polygon points = "639.317, 350.685 662.556, 403.793 706.809, 383.027 715.097, 376.586 679.247, 345.621 643.405, 343.726 "
fill = "none" stroke = "black"/>
</g>
<g>
<polygon points = "90.311, 415.443 105.073, 403.214 107.662, 396.578 105.761, 394.058 65.056, 368.099 0.000, 377.077 0.000, 412.433 "
fill = "none" stroke = "black"/>
</g>
<g>
<polygon points = "202.574, 630.529 204.445, 700.194 265.859, 669.689 "
fill = "none" stroke = "black"/>
</g>
<g>
<polygon points = "653.529, 880.425 653.478, 880.972 681.587, 911.320 724.966, 896.330 684.750, 850.277 "
fill = "none" stroke = "black"/>
</g>
<g>
<polygon points = "781.448, 447.841 775.830, 438.567 743.593, 443.194 738.155, 448.457 747.096, 499.486 783.074, 496.569 "
fill = "none" stroke = "black"/>
</g>
<g>
<polygon points = "518.792, 396.018 576.920, 443.404 594.359, 435.657 564.925, 380.591 533.466, 376.361 526.442, 379.881 "
fill = "none" stroke = "black"/>
</g>
<g>
<polygon points = "373.193, 276.889 332.351, 258.365 295.959, 280.082 287.098, 288.818 286.290, 296.911 307.087, 331.416 353.738, 338.008 368.099, 327.424 370.026, 324.346 372.569, 310.573 373.161, 282.158 "
fill = "none" stroke = "black"/>
</g>
<g>
<polygon points = "147.961, 881.750 155.406, 814.090 150.061, 812.340 117.723, 826.793 117.327, 866.220 "
fill = "none" stroke = "black"/>
</g>
<g>
<polygon points = "466.838, 163.377 477.762, 167.005 523.721, 134.253 523.768, 133.175 518.893, 122.109 441.166, 119.633 445.178, 135.337 "
fill = "none" stroke = "black"/>
</g>
<g>
<polygon points = "834.078, 401.760 793.624, 407.797 775.830, 438.567 781.448, 447.841 824.192, 464.195 861.853, 422.764 "
fill = "none" stroke = "black"/>
</g>
<g>
<polygon points = "722.773, 686.579 785.690, 737.061 788.627, 724.704 779.437, 667.891 730.209, 679.627 "
fill = "none" stroke = "black"/>
</g>
<g>
<polygon points = "100.442, 491.283 101.622, 500.674 108.146, 505.827 177.434, 463.936 162.423, 457.532 132.979, 452.278 101.532, 489.238 "
fill = "none" stroke = "black"/>
</g>
<g>
<polygon points = "344.784, 434.146 345.183, 420.964 327.885, 393.972 289.957, 386.127 254.168, 409.958 253.757, 410.763 258.597, 418.142 305.472, 449.138 334.901, 447.138 339.499, 444.664 "
fill = "none" stroke = "black"/>
</g>
<g>
<polygon points = "559.221, 606.872 559.161, 602.316 556.029, 581.122 523.222, 552.112 496.705, 542.907 479.641, 544.415 470.218, 564.404 492.438, 586.196 556.685, 610.099 "
fill = "none" stroke = "black"/>
</g>
<g>
<polygon points = "303.553, 639.664 219.589, 607.531 206.751, 609.267 198.002, 614.266 196.382, 621.369 202.574, 630.529 265.859, 669.689 284.894, 677.328 "
fill = "none" stroke = "black"/>
</g>
<g>
<polygon points = "425.588, 562.815 412.291, 537.505 390.864, 529.724 373.052, 536.163 367.569, 580.044 401.059, 584.122 "
fill = "none" stroke = "black"/>
</g>
<g>
<polygon points = "455.467, 597.940 485.821, 630.697 492.438, 586.196 470.218, 564.404 466.503, 566.215 "
fill = "none" stroke = "black"/>
</g>
<g>
<polygon points = "315.564, 895.941 298.657, 888.151 258.577, 930.413 285.025, 944.874 "
fill = "none" stroke = "black"/>
</g>
<g>
<polygon points = "374.235, 768.013 380.748, 764.595 387.509, 748.572 355.863, 706.954 305.025, 727.618 300.872, 753.737 307.322, 760.779 "
fill = "none" stroke = "black"/>
</g>
<g>
<polygon points = "643.405, 343.726 679.247, 345.621 682.735, 335.457 676.962, 321.161 669.532, 320.998 642.877, 339.824 "
fill = "none" stroke = "black"/>
</g>
<g>
<polygon points = "506.666, 298.915 550.096, 296.528 542.606, 251.494 524.957, 248.871 491.946, 271.229 "
fill = "none" stroke = "black"/>
</g>
<g>
<polygon points = "704.309, 77.907 734.244, 112.308 758.255, 51.316 757.372, 0.000 685.410, 0.000 "
fill = "none" stroke = "black"/>
</g>
<g>
<polygon points = "477.928, 51.849 441.866, 46.107 424.349, 54.581 427.273, 97.155 "
fill = "none" stroke = "black"/>
</g>
<g>
<polygon points = "330.351, 561.478 343.277, 517.042 332.394, 510.976 309.600, 513.425 286.126, 527.299 285.706, 528.337 301.204, 559.852 "
fill = "none" stroke = "black"/>
</g>
<g>
<polygon points = "473.839, 332.838 471.289, 334.778 526.442, 379.881 533.466, 376.361 542.064, 331.609 "
fill = "none" stroke = "black"/>
</g>
<g>
<polygon points = "398.117, 412.078 423.821, 375.361 409.269, 372.041 381.164, 393.315 "
fill = "none" stroke = "black"/>
</g>
<g>
<polygon points = "987.710, 827.965 960.514, 837.403 1000.000, 892.998 1000.000, 876.251 "
fill = "none" stroke = "black"/>
</g>
<g>
<polygon points = "642.940, 643.160 634.119, 660.225 628.823, 678.925 640.589, 690.847 646.417, 688.075 679.554, 659.070 "
fill = "none" stroke = "black"/>
</g>
<g>
<polygon points = "565.987, 452.107 518.975, 452.272 506.315, 464.364 561.897, 492.805 "
fill = "none" stroke = "black"/>
</g>
<g>
<polygon points = "841.875, 976.275 827.000, 974.966 812.288, 1000.000 854.555, 1000.000 "
fill = "none" stroke = "black"/>
</g>
<g>
<polygon points = "264.491, 348.280 250.501, 385.631 254.168, 409.958 289.957, 386.127 306.209, 332.733 "
fill = "none" stroke = "black"/>
</g>
<g>
<polygon points = "510.408, 56.795 508.293, 68.527 520.635, 104.969 569.950, 89.603 567.517, 75.723 564.933, 66.931 "
fill = "none" stroke = "black"/>
</g>
<g>
<polygon points = "234.617, 58.562 238.096, 62.928 328.312, 0.000 271.905, 0.000 "
fill = "none" stroke = "black"/>
</g>
<g>
<polygon points = "263.967, 170.201 266.738, 159.648 261.901, 150.289 222.834, 142.440 227.151, 166.134 "
fill = "none" stroke = "black"/>
</g>
<g>
<polygon points = "646.745, 556.382 718.601, 541.040 722.192, 538.447 668.814, 507.250 639.578, 512.585 636.892, 517.262 "
fill = "none" stroke = "black"/>
</g>
<g>
<polygon points = "827.000, 974.966 816.535, 963.347 789.174, 1000.000 812.288, 1000.000 "
fill = "none" stroke = "black"/>
</g>
<g>
<polygon points = "203.768, 318.050 200.717, 263.169 197.408, 258.000 113.042, 268.432 118.638, 290.842 197.683, 322.992 "
fill = "none" stroke = "black"/>
</g>
<g>
<polygon points = "722.192, 538.447 718.601, 541.040 659.182, 591.699 661.946, 595.567 749.044, 589.969 725.470, 538.797 "
fill = "none" stroke = "black"/>
</g>
<g>
<polygon points = "550.064, 240.341 592.952, 261.357 608.433, 255.585 605.601, 225.337 593.168, 215.845 562.942, 207.595 "
fill = "none" stroke = "black"/>
</g>
<g>
<polygon points = "931.281, 307.004 933.074, 311.301 970.250, 335.025 1000.000, 331.812 1000.000, 259.759 "
fill = "none" stroke = "black"/>
</g>
<g>
<polygon points = "267.969, 212.149 257.913, 264.143 287.098, 288.818 295.959, 280.082 280.099, 206.016 275.784, 205.668 271.850, 207.786 "
fill = "none" stroke = "black"/>
</g>
<g>
<polygon points = "179.679, 982.877 102.586, 996.372 101.515, 1000.000 184.986, 1000.000 "
fill = "none" stroke = "black"/>
</g>
<g>
<polygon points = "530.711, 932.020 533.222, 930.559 494.499, 896.819 473.089, 891.282 467.992, 902.128 482.336, 933.663 "
fill = "none" stroke = "black"/>
</g>
<g>
<polygon points = "149.142, 76.830 158.864, 126.716 166.817, 141.084 193.767, 124.088 175.601, 74.393 "
fill = "none" stroke = "black"/>
</g>
<g>
<polygon points = "795.665, 271.711 825.892, 258.362 828.464, 255.421 824.809, 227.334 779.692, 234.767 759.155, 253.516 "
fill = "none" stroke = "black"/>
</g>
<g>
<polygon points = "464.370, 986.640 403.544, 968.995 374.855, 994.132 373.400, 1000.000 463.613, 1000.000 "
fill = "none" stroke = "black"/>
</g>
<g>
<polygon points = "635.315, 517.528 636.892, 517.262 639.578, 512.585 626.153, 441.231 622.180, 439.376 594.359, 435.657 576.920, 443.404 565.987, 452.107 561.897, 492.805 562.381, 498.475 568.453, 513.759 575.833, 520.689 "
fill = "none" stroke = "black"/>
</g>
<g>
<polygon points = "85.073, 472.640 79.190, 434.471 44.002, 448.039 66.123, 468.716 "
fill = "none" stroke = "black"/>
</g>
<g>
<polygon points = "419.810, 783.576 380.748, 764.595 374.235, 768.013 378.103, 790.083 413.527, 791.258 "
fill = "none" stroke = "black"/>
</g>
<g>
<polygon points = "373.244, 392.219 381.164, 393.315 409.269, 372.041 368.099, 327.424 353.738, 338.008 353.690, 339.326 "
fill = "none" stroke = "black"/>
</g>
<g>
<polygon points = "664.440, 303.976 671.273, 301.815 672.333, 301.322 679.642, 270.570 664.913, 258.012 663.564, 257.196 627.658, 277.337 "
fill = "none" stroke = "black"/>
</g>
<g>
<polygon points = "572.006, 753.484 572.213, 678.880 569.082, 676.318 521.806, 703.613 560.370, 750.867 "
fill = "none" stroke = "black"/>
</g>
<g>
<polygon points = "826.359, 648.114 834.907, 582.628 829.468, 575.570 828.777, 574.901 765.299, 599.851 763.604, 627.252 779.250, 655.858 "
fill = "none" stroke = "black"/>
</g>
<g>
<polygon points = "648.598, 712.309 703.859, 699.480 708.767, 685.421 703.614, 674.632 646.417, 688.075 640.589, 690.847 "
fill = "none" stroke = "black"/>
</g>
<g>
<polygon points = "30.626, 898.290 16.427, 878.377 0.000, 883.907 0.000, 924.792 "
fill = "none" stroke = "black"/>
</g>
<g>
<polygon points = "500.964, 199.816 509.937, 237.024 524.957, 248.871 542.606, 251.494 550.064, 240.341 562.942, 207.595 553.616, 189.823 548.091, 187.058 "
fill = "none" stroke = "black"/>
</g>
<g>
<polygon points = "184.346, 941.387 193.524, 958.314 235.037, 983.543 245.191, 929.271 242.499, 925.820 226.322, 921.314 "
fill = "none" stroke = "black"/>
</g>
<g>
<polygon points = "64.327, 797.306 46.377, 824.384 67.675, 849.333 82.646, 852.658 78.473, 805.962 "
fill = "none" stroke = "black"/>
</g>
<g>
<polygon points = "708.767, 685.421 703.859, 699.480 733.292, 771.082 784.774, 752.205 785.690, 737.061 722.773, 686.579 "
fill = "none" stroke = "black"/>
</g>
<g>
<polygon points = "41.487, 564.958 48.022, 561.183 79.722, 507.763 51.012, 500.064 0.000, 498.895 0.000, 533.863 "
fill = "none" stroke = "black"/>
</g>
<g>
<polygon points = "448.477, 433.857 447.001, 434.689 450.467, 500.839 488.107, 463.017 "
fill = "none" stroke = "black"/>
</g>
<g>
<polygon points = "462.963, 821.429 458.579, 818.168 428.886, 835.488 443.830, 871.524 470.153, 877.706 471.930, 873.786 472.646, 860.069 "
fill = "none" stroke = "black"/>
</g>
<g>
<polygon points = "280.099, 206.016 319.777, 200.214 323.097, 190.816 319.762, 137.263 266.738, 159.648 263.967, 170.201 275.784, 205.668 "
fill = "none" stroke = "black"/>
</g>
<g>
<polygon points = "696.210, 446.406 703.335, 445.241 706.809, 383.027 662.556, 403.793 648.436, 427.640 "
fill = "none" stroke = "black"/>
</g>
<g>
<polygon points = "704.542, 650.496 698.015, 646.291 679.554, 659.070 646.417, 688.075 703.614, 674.632 "
fill = "none" stroke = "black"/>
</g>
<g>
<polygon points = "0.000, 6.398 50.085, 58.167 72.321, 65.761 78.016, 55.577 90.238, 0.000 0.000, 0.000 "
fill = "none" stroke = "black"/>
</g>
<g>
<polygon points = "548.080, 974.037 536.507, 981.225 520.015, 1000.000 573.782, 1000.000 "
fill = "none" stroke = "black"/>
</g>
<g>
<polygon points = "887.653, 963.454 860.423, 917.196 853.680, 919.189 841.875, 976.275 854.555, 1000.000 880.442, 1000.000 "
fill = "none" stroke = "black"/>
</g>
<g>
<polygon points = "373.052, 536.163 390.864, 529.724 393.817, 498.124 369.058, 493.173 347.713, 517.151 "
fill = "none" stroke = "black"/>
</g>
<g>
<polygon points = "554.434, 300.519 592.952, 261.357 550.064, 240.341 542.606, 251.494 550.096, 296.528 "
fill = "none" stroke = "black"/>
</g>
<g>
<polygon points = "639.578, 512.585 668.814, 507.250 684.260, 496.124 696.210, 446.406 648.436, 427.640 626.153, 441.231 "
fill = "none" stroke = "black"/>
</g>
<g>
<polygon points = "30.626, 898.290 53.917, 901.579 52.754, 871.453 50.095, 866.968 26.640, 847.555 23.861, 849.088 16.427, 878.377 "
fill = "none" stroke = "black"/>
</g>
<g>
<polygon points = "979.566, 777.049 968.896, 778.410 957.724, 786.731 925.430, 831.012 960.514, 837.403 987.710, 827.965 1000.000, 818.833 1000.000, 781.374 "
fill = "none" stroke = "black"/>
</g>
<g>
<polygon points = "373.244, 392.219 353.690, 339.326 327.885, 393.972 345.183, 420.964 "
fill = "none" stroke = "black"/>
</g>
<g>
<polygon points = "653.529, 880.425 623.318, 846.131 587.119, 850.821 571.896, 886.082 567.693, 906.254 569.402, 913.658 600.023, 925.051 653.478, 880.972 "
fill = "none" stroke = "black"/>
</g>
<g>
<polygon points = "508.030, 47.677 510.408, 56.795 564.933, 66.931 571.893, 56.277 569.807, 0.000 511.822, 0.000 "
fill = "none" stroke = "black"/>
</g>
<g>
<polygon points = "319.762, 137.263 323.097, 190.816 364.583, 177.728 371.280, 112.762 367.508, 111.514 333.789, 106.340 325.339, 115.251 "
fill = "none" stroke = "black"/>
</g>
<g>
<polygon points = "978.233, 763.131 988.269, 688.711 943.038, 681.571 "
fill = "none" stroke = "black"/>
</g>
<g>
<polygon points = "206.751, 609.267 219.589, 607.531 251.314, 598.257 264.024, 572.969 250.672, 549.546 242.379, 550.133 "
fill = "none" stroke = "black"/>
</g>
<g>
<polygon points = "807.320, 136.312 817.070, 84.468 801.404, 86.372 762.405, 138.827 766.228, 144.578 "
fill = "none" stroke = "black"/>
</g>
<g>
<polygon points = "257.913, 264.143 267.969, 212.149 199.003, 235.417 197.408, 258.000 200.717, 263.169 "
fill = "none" stroke = "black"/>
</g>
<g>
<polygon points = "652.829, 585.514 659.182, 591.699 718.601, 541.040 646.745, 556.382 "
fill = "none" stroke = "black"/>
</g>
<g>
<polygon points = "261.571, 345.022 275.591, 302.016 233.215, 320.297 "
fill = "none" stroke = "black"/>
</g>
<g>
<polygon points = "97.052, 810.349 102.719, 813.268 137.495, 779.716 134.994, 745.840 "
fill = "none" stroke = "black"/>
</g>
<g>
<polygon points = "101.532, 489.238 132.979, 452.278 109.532, 415.461 "
fill = "none" stroke = "black"/>
</g>
<g>
<polygon points = "26.640, 847.555 32.952, 835.356 0.000, 800.941 0.000, 845.828 23.861, 849.088 "
fill = "none" stroke = "black"/>
</g>
<g>
<polygon points = "586.562, 604.427 652.829, 585.514 646.745, 556.382 636.892, 517.262 635.315, 517.528 559.161, 602.316 559.221, 606.872 "
fill = "none" stroke = "black"/>
</g>
<g>
<polygon points = "116.360, 316.301 118.638, 290.842 113.042, 268.432 79.847, 238.922 58.665, 291.516 67.668, 328.855 71.297, 333.834 111.245, 322.554 "
fill = "none" stroke = "black"/>
</g>
<g>
<polygon points = "371.280, 112.762 364.583, 177.728 397.281, 185.999 387.032, 114.949 "
fill = "none" stroke = "black"/>
</g>
<g>
<polygon points = "117.640, 39.108 143.802, 37.694 157.528, 20.312 154.582, 0.000 121.915, 0.000 "
fill = "none" stroke = "black"/>
</g>
<g>
<polygon points = "62.308, 929.101 61.880, 909.030 53.917, 901.579 30.626, 898.290 0.000, 924.792 0.000, 953.861 0.488, 954.039 "
fill = "none" stroke = "black"/>
</g>
<g>
<polygon points = "472.272, 247.679 509.937, 237.024 500.964, 199.816 498.462, 199.341 460.754, 226.409 "
fill = "none" stroke = "black"/>
</g>
<g>
<polygon points = "939.029, 680.620 920.484, 671.442 885.634, 745.091 920.398, 760.843 949.799, 749.745 "
fill = "none" stroke = "black"/>
</g>
<g>
<polygon points = "396.827, 256.739 402.217, 245.733 409.076, 222.831 322.387, 204.095 332.351, 258.365 373.193, 276.889 "
fill = "none" stroke = "black"/>
</g>
<g>
<polygon points = "491.946, 271.229 524.957, 248.871 509.937, 237.024 472.272, 247.679 473.836, 261.814 "
fill = "none" stroke = "black"/>
</g>
<g>
<polygon points = "671.273, 301.815 669.532, 320.998 676.962, 321.161 678.495, 306.445 672.333, 301.322 "
fill = "none" stroke = "black"/>
</g>
<g>
<polygon points = "741.112, 936.971 739.082, 939.105 744.459, 968.101 777.305, 996.724 780.160, 957.410 "
fill = "none" stroke = "black"/>
</g>
<g>
<polygon points = "219.280, 776.355 237.122, 813.093 245.615, 817.354 290.057, 759.273 262.610, 755.560 "
fill = "none" stroke = "black"/>
</g>
<g>
<polygon points = "542.064, 331.609 533.466, 376.361 564.925, 380.591 592.408, 357.706 578.079, 312.756 555.860, 302.827 "
fill = "none" stroke = "black"/>
</g>
<g>
<polygon points = "634.119, 660.225 642.940, 643.160 662.400, 601.813 661.946, 595.567 659.182, 591.699 652.829, 585.514 586.562, 604.427 "
fill = "none" stroke = "black"/>
</g>
<g>
<polygon points = "212.996, 772.940 219.280, 776.355 262.610, 755.560 211.494, 739.470 "
fill = "none" stroke = "black"/>
</g>
<g>
<polygon points = "700.528, 808.078 630.927, 810.005 623.318, 846.131 653.529, 880.425 684.750, 850.277 699.393, 824.828 "
fill = "none" stroke = "black"/>
</g>
<g>
<polygon points = "730.742, 772.836 718.644, 777.891 700.528, 808.078 699.393, 824.828 747.474, 873.013 769.858, 864.764 "
fill = "none" stroke = "black"/>
</g>
<g>
<polygon points = "65.056, 368.099 71.297, 333.834 67.668, 328.855 27.168, 330.281 0.000, 362.899 0.000, 377.077 "
fill = "none" stroke = "black"/>
</g>
<g>
<polygon points = "139.706, 73.625 143.802, 37.694 117.640, 39.108 78.016, 55.577 72.321, 65.761 82.789, 87.049 111.673, 84.209 "
fill = "none" stroke = "black"/>
</g>
<g>
<polygon points = "443.557, 374.904 455.662, 411.207 517.531, 397.517 518.792, 396.018 526.442, 379.881 471.289, 334.778 461.508, 335.259 459.277, 337.523 "
fill = "none" stroke = "black"/>
</g>
<g>
<polygon points = "920.110, 959.786 887.653, 963.454 880.442, 1000.000 968.059, 1000.000 "
fill = "none" stroke = "black"/>
</g>
<g>
<polygon points = "592.952, 261.357 554.434, 300.519 555.860, 302.827 578.079, 312.756 617.626, 300.143 627.652, 277.339 608.433, 255.585 "
fill = "none" stroke = "black"/>
</g>
<g>
<polygon points = "475.633, 969.636 494.133, 971.556 504.744, 964.031 530.711, 932.020 482.336, 933.663 472.655, 961.663 "
fill = "none" stroke = "black"/>
</g>
<g>
<polygon points = "432.095, 504.909 447.867, 506.667 450.467, 500.839 447.001, 434.689 424.365, 442.824 412.637, 463.893 412.552, 484.296 "
fill = "none" stroke = "black"/>
</g>
<g>
<polygon points = "744.284, 921.531 741.112, 936.971 780.160, 957.410 814.497, 925.030 816.878, 920.465 806.798, 911.080 "
fill = "none" stroke = "black"/>
</g>
<g>
<polygon points = "393.615, 15.206 424.349, 54.581 441.866, 46.107 458.506, 24.134 419.602, 0.000 385.510, 0.000 "
fill = "none" stroke = "black"/>
</g>
<g>
<polygon points = "465.076, 645.148 446.055, 677.595 446.712, 693.345 489.469, 688.297 497.142, 651.131 487.404, 645.304 "
fill = "none" stroke = "black"/>
</g>
<g>
<polygon points = "473.836, 261.814 472.272, 247.679 460.754, 226.409 432.634, 216.825 412.510, 218.456 409.076, 222.831 402.217, 245.733 463.534, 272.439 "
fill = "none" stroke = "black"/>
</g>
<g>
<polygon points = "193.397, 869.705 203.891, 869.804 215.146, 865.244 246.211, 824.375 245.615, 817.354 237.122, 813.093 187.047, 802.986 177.902, 813.059 "
fill = "none" stroke = "black"/>
</g>
<g>
<polygon points = "323.669, 69.060 333.789, 106.340 367.508, 111.514 393.615, 15.206 385.510, 0.000 333.044, 0.000 "
fill = "none" stroke = "black"/>
</g>
<g>
<polygon points = "968.896, 778.410 979.566, 777.049 978.233, 763.131 943.038, 681.571 939.029, 680.620 949.799, 749.745 956.039, 760.922 "
fill = "none" stroke = "black"/>
</g>
<g>
<polygon points = "52.754, 871.453 53.917, 901.579 61.880, 909.030 86.815, 894.692 103.897, 869.870 90.694, 862.351 "
fill = "none" stroke = "black"/>
</g>
<g>
<polygon points = "509.484, 815.163 508.665, 836.921 519.585, 860.064 522.079, 861.375 541.643, 844.881 554.330, 813.185 515.865, 808.984 "
fill = "none" stroke = "black"/>
</g>
<g>
<polygon points = "494.499, 896.819 533.222, 930.559 548.296, 929.316 569.402, 913.658 567.693, 906.254 528.477, 875.996 "
fill = "none" stroke = "black"/>
</g>
<g>
<polygon points = "834.907, 582.628 826.359, 648.114 868.580, 668.351 915.070, 662.664 904.239, 635.188 "
fill = "none" stroke = "black"/>
</g>
<g>
<polygon points = "380.566, 686.345 394.280, 694.391 444.668, 695.991 446.712, 693.345 446.055, 677.595 408.649, 640.134 381.777, 657.047 "
fill = "none" stroke = "black"/>
</g>
<g>
<polygon points = "727.028, 450.450 738.155, 448.457 743.593, 443.194 719.306, 378.218 717.227, 376.232 715.097, 376.586 706.809, 383.027 703.335, 445.241 "
fill = "none" stroke = "black"/>
</g>
<g>
<polygon points = "883.456, 182.772 827.732, 216.494 824.809, 227.334 828.464, 255.421 837.769, 261.038 893.642, 264.475 885.206, 182.430 "
fill = "none" stroke = "black"/>
</g>
<g>
<polygon points = "828.464, 255.421 825.892, 258.362 812.302, 330.652 836.060, 342.705 850.169, 336.348 866.134, 319.493 837.769, 261.038 "
fill = "none" stroke = "black"/>
</g>
<g>
<polygon points = "367.508, 111.514 371.280, 112.762 387.032, 114.949 426.937, 105.148 427.273, 97.155 424.349, 54.581 393.615, 15.206 "
fill = "none" stroke = "black"/>
</g>
<g>
<polygon points = "628.823, 678.925 634.119, 660.225 586.562, 604.427 559.221, 606.872 556.685, 610.099 550.755, 638.298 569.082, 676.318 572.213, 678.880 "
fill = "none" stroke = "black"/>
</g>
<g>
<polygon points = "569.381, 533.198 535.878, 538.938 523.222, 552.112 556.029, 581.122 "
fill = "none" stroke = "black"/>
</g>
<g>
<polygon points = "446.517, 771.871 451.114, 761.748 450.177, 757.670 411.815, 738.572 387.509, 748.572 380.748, 764.595 419.810, 783.576 "
fill = "none" stroke = "black"/>
</g>
<g>
<polygon points = "48.022, 561.183 41.487, 564.958 43.987, 592.445 88.438, 595.192 102.151, 558.234 "
fill = "none" stroke = "black"/>
</g>
<g>
<polygon points = "503.056, 708.684 489.469, 688.297 446.712, 693.345 444.668, 695.991 452.706, 748.713 "
fill = "none" stroke = "black"/>
</g>
<g>
<polygon points = "64.327, 797.306 78.473, 805.962 97.052, 810.349 134.994, 745.840 135.009, 745.619 54.705, 764.906 "
fill = "none" stroke = "black"/>
</g>
<g>
<polygon points = "781.448, 447.841 783.074, 496.569 804.194, 511.663 818.996, 515.534 823.694, 507.274 824.192, 464.195 "
fill = "none" stroke = "black"/>
</g>
<g>
<polygon points = "689.255, 153.383 715.295, 123.493 659.119, 110.128 642.798, 138.941 654.925, 163.626 "
fill = "none" stroke = "black"/>
</g>
<g>
<polygon points = "233.215, 320.297 275.591, 302.016 286.290, 296.911 287.098, 288.818 257.913, 264.143 200.717, 263.169 203.768, 318.050 217.286, 322.332 "
fill = "none" stroke = "black"/>
</g>
<g>
<polygon points = "219.589, 607.531 303.553, 639.664 310.368, 629.866 295.296, 605.892 251.314, 598.257 "
fill = "none" stroke = "black"/>
</g>
<g>
<polygon points = "79.722, 507.763 48.022, 561.183 102.151, 558.234 131.241, 543.968 108.146, 505.827 101.622, 500.674 "
fill = "none" stroke = "black"/>
</g>
<g>
<polygon points = "199.003, 235.417 267.969, 212.149 271.850, 207.786 219.556, 183.783 188.150, 204.894 "
fill = "none" stroke = "black"/>
</g>
<g>
<polygon points = "494.133, 971.556 475.633, 969.636 464.370, 986.640 463.613, 1000.000 514.018, 1000.000 "
fill = "none" stroke = "black"/>
</g>
<g>
<polygon points = "286.290, 296.911 275.591, 302.016 261.571, 345.022 264.491, 348.280 306.209, 332.733 307.087, 331.416 "
fill = "none" stroke = "black"/>
</g>
<g>
<polygon points = "446.517, 771.871 419.810, 783.576 413.527, 791.258 394.889, 831.968 396.267, 836.439 428.886, 835.488 458.579, 818.168 "
fill = "none" stroke = "black"/>
</g>
<g>
<polygon points = "960.514, 837.403 925.430, 831.012 917.274, 834.249 897.743, 843.691 894.960, 859.562 895.804, 872.757 912.040, 884.749 1000.000, 907.671 1000.000, 892.998 "
fill = "none" stroke = "black"/>
</g>
<g>
<polygon points = "758.255, 51.316 793.760, 69.010 828.185, 37.654 810.207, 0.000 757.372, 0.000 "
fill = "none" stroke = "black"/>
</g>
<g>
<polygon points = "216.652, 415.550 178.491, 351.423 165.628, 354.977 126.819, 393.091 199.937, 430.208 "
fill = "none" stroke = "black"/>
</g>
<g>
<polygon points = "59.469, 695.646 121.017, 672.693 122.711, 666.071 49.329, 636.220 "
fill = "none" stroke = "black"/>
</g>
<g>
<polygon points = "309.600, 513.425 299.197, 465.035 267.950, 492.619 286.126, 527.299 "
fill = "none" stroke = "black"/>
</g>
<g>
<polygon points = "818.363, 134.320 807.320, 136.312 766.228, 144.578 766.846, 157.420 827.732, 216.494 883.456, 182.772 "
fill = "none" stroke = "black"/>
</g>
<g>
<polygon points = "704.542, 650.496 703.614, 674.632 708.767, 685.421 722.773, 686.579 730.209, 679.627 734.988, 641.243 "
fill = "none" stroke = "black"/>
</g>
<g>
<polygon points = "793.624, 407.797 834.078, 401.760 836.060, 342.705 812.302, 330.652 780.852, 331.226 784.628, 396.845 "
fill = "none" stroke = "black"/>
</g>
<g>
<polygon points = "102.586, 996.372 104.532, 980.636 62.308, 929.101 0.488, 954.039 42.130, 1000.000 101.515, 1000.000 "
fill = "none" stroke = "black"/>
</g>
<g>
<polygon points = "113.042, 268.432 197.408, 258.000 199.003, 235.417 188.150, 204.894 145.593, 173.020 67.106, 187.665 59.737, 194.504 79.847, 238.922 "
fill = "none" stroke = "black"/>
</g>
<g>
<polygon points = "51.012, 500.064 79.722, 507.763 101.622, 500.674 100.442, 491.283 85.073, 472.640 66.123, 468.716 57.749, 475.377 "
fill = "none" stroke = "black"/>
</g>
<g>
<polygon points = "926.717, 767.769 917.274, 834.249 925.430, 831.012 957.724, 786.731 "
fill = "none" stroke = "black"/>
</g>
<g>
<polygon points = "158.621, 890.574 155.915, 924.484 184.346, 941.387 226.322, 921.314 203.891, 869.804 193.397, 869.705 "
fill = "none" stroke = "black"/>
</g>
<g>
<polygon points = "701.365, 313.309 714.983, 313.701 720.332, 288.641 710.552, 269.786 709.807, 269.421 684.651, 271.287 701.337, 313.291 "
fill = "none" stroke = "black"/>
</g>
<g>
<polygon points = "496.654, 768.925 519.726, 744.920 506.615, 710.031 503.056, 708.684 452.706, 748.713 450.177, 757.670 451.114, 761.748 "
fill = "none" stroke = "black"/>
</g>
<g>
<polygon points = "661.946, 595.567 662.400, 601.813 698.015, 646.291 704.542, 650.496 734.988, 641.243 763.604, 627.252 765.299, 599.851 762.769, 597.497 749.044, 589.969 "
fill = "none" stroke = "black"/>
</g>
<g>
<polygon points = "158.411, 732.451 186.871, 791.042 212.996, 772.940 211.494, 739.470 194.055, 724.163 "
fill = "none" stroke = "black"/>
</g>
<g>
<polygon points = "466.503, 566.215 470.218, 564.404 479.641, 544.415 477.624, 535.369 447.867, 506.667 432.095, 504.909 412.291, 537.505 425.588, 562.815 "
fill = "none" stroke = "black"/>
</g>
<g>
<polygon points = "828.185, 37.654 853.693, 66.901 884.511, 65.242 902.043, 51.796 918.949, 0.000 810.207, 0.000 "
fill = "none" stroke = "black"/>
</g>
<g>
<polygon points = "475.633, 969.636 472.655, 961.663 423.415, 931.748 403.544, 968.995 464.370, 986.640 "
fill = "none" stroke = "black"/>
</g>
<g>
<polygon points = "536.507, 981.225 548.080, 974.037 548.296, 929.316 533.222, 930.559 530.711, 932.020 504.744, 964.031 "
fill = "none" stroke = "black"/>
</g>
<g>
<polygon points = "793.624, 407.797 784.628, 396.845 719.306, 378.218 743.593, 443.194 775.830, 438.567 "
fill = "none" stroke = "black"/>
</g>
<g>
<polygon points = "788.627, 724.704 868.580, 668.351 826.359, 648.114 779.250, 655.858 779.437, 667.891 "
fill = "none" stroke = "black"/>
</g>
<g>
<polygon points = "201.405, 503.633 206.808, 502.216 250.438, 483.998 258.597, 418.142 253.757, 410.763 216.652, 415.550 199.937, 430.208 184.700, 464.198 "
fill = "none" stroke = "black"/>
</g>
<g>
<polygon points = "438.614, 625.439 455.467, 597.940 466.503, 566.215 425.588, 562.815 401.059, 584.122 417.057, 629.329 "
fill = "none" stroke = "black"/>
</g>
<g>
<polygon points = "967.696, 39.057 1000.000, 39.521 1000.000, 0.000 946.188, 0.000 "
fill = "none" stroke = "black"/>
</g>
<g>
<polygon points = "909.415, 165.566 902.523, 151.466 839.779, 108.662 818.363, 134.320 883.456, 182.772 885.206, 182.430 899.653, 174.228 "
fill = "none" stroke = "black"/>
</g>
<g>
<polygon points = "325.200, 815.626 280.858, 851.756 287.035, 878.988 298.657, 888.151 315.564, 895.941 342.341, 896.936 352.656, 887.853 "
fill = "none" stroke = "black"/>
</g>
<g>
<polygon points = "970.250, 335.025 978.355, 390.255 1000.000, 397.391 1000.000, 331.812 "
fill = "none" stroke = "black"/>
</g>
<g>
<polygon points = "510.408, 56.795 508.030, 47.677 477.928, 51.849 427.273, 97.155 426.937, 105.148 433.136, 108.988 508.293, 68.527 "
fill = "none" stroke = "black"/>
</g>
<g>
<polygon points = "675.027, 199.570 709.322, 190.871 693.693, 169.547 "
fill = "none" stroke = "black"/>
</g>
<g>
<polygon points = "517.531, 397.517 518.975, 452.272 565.987, 452.107 576.920, 443.404 518.792, 396.018 "
fill = "none" stroke = "black"/>
</g>
<g>
<polygon points = "143.802, 37.694 139.706, 73.625 149.142, 76.830 175.601, 74.393 192.605, 50.423 157.528, 20.312 "
fill = "none" stroke = "black"/>
</g>
<g>
<polygon points = "787.050, 865.703 788.708, 867.350 829.812, 858.480 808.544, 794.039 "
fill = "none" stroke = "black"/>
</g>
<g>
<polygon points = "12.207, 729.823 59.469, 695.646 49.329, 636.220 33.761, 614.731 0.000, 632.918 0.000, 728.352 "
fill = "none" stroke = "black"/>
</g>
<g>
<polygon points = "86.815, 894.692 133.117, 943.090 155.915, 924.484 158.621, 890.574 147.961, 881.750 117.327, 866.220 103.897, 869.870 "
fill = "none" stroke = "black"/>
</g>
<g>
<polygon points = "536.507, 981.225 504.744, 964.031 494.133, 971.556 514.018, 1000.000 520.015, 1000.000 "
fill = "none" stroke = "black"/>
</g>
<g>
<polygon points = "559.544, 125.886 523.768, 133.175 523.721, 134.253 548.091, 187.058 553.616, 189.823 558.346, 185.141 578.090, 140.234 "
fill = "none" stroke = "black"/>
</g>
<g>
<polygon points = "473.839, 332.838 542.064, 331.609 555.860, 302.827 554.434, 300.519 550.096, 296.528 506.666, 298.915 "
fill = "none" stroke = "black"/>
</g>
<g>
<polygon points = "737.314, 341.154 772.741, 327.357 769.967, 305.525 755.502, 287.401 720.332, 288.641 714.983, 313.701 "
fill = "none" stroke = "black"/>
</g>
<g>
<polygon points = "32.952, 835.356 46.377, 824.384 64.327, 797.306 54.705, 764.906 12.207, 729.823 0.000, 728.352 0.000, 800.941 "
fill = "none" stroke = "black"/>
</g>
<g>
<polygon points = "662.400, 601.813 642.940, 643.160 679.554, 659.070 698.015, 646.291 "
fill = "none" stroke = "black"/>
</g>
<g>
<polygon points = "50.095, 866.968 52.754, 871.453 90.694, 862.351 82.646, 852.658 67.675, 849.333 "
fill = "none" stroke = "black"/>
</g>
<g>
<polygon points = "917.274, 834.249 926.717, 767.769 923.302, 763.512 920.398, 760.843 885.634, 745.091 853.006, 778.774 897.743, 843.691 "
fill = "none" stroke = "black"/>
</g>
<g>
<polygon points = "403.997, 429.203 398.117, 412.078 381.164, 393.315 373.244, 392.219 345.183, 420.964 344.784, 434.146 "
fill = "none" stroke = "black"/>
</g>
<g>
<polygon points = "102.586, 996.372 179.679, 982.877 193.524, 958.314 184.346, 941.387 155.915, 924.484 133.117, 943.090 104.532, 980.636 "
fill = "none" stroke = "black"/>
</g>
<g>
<polygon points = "664.913, 258.012 709.248, 233.890 712.004, 224.218 659.415, 216.303 663.564, 257.196 "
fill = "none" stroke = "black"/>
</g>
<g>
<polygon points = "744.284, 921.531 733.530, 896.494 724.966, 896.330 681.587, 911.320 684.678, 952.756 692.091, 957.286 739.082, 939.105 741.112, 936.971 "
fill = "none" stroke = "black"/>
</g>
<g>
<polygon points = "567.517, 75.723 569.950, 89.603 577.729, 97.485 601.891, 103.949 634.605, 70.409 633.998, 64.502 "
fill = "none" stroke = "black"/>
</g>
<g>
<polygon points = "905.619, 564.822 910.996, 604.004 966.945, 554.568 969.591, 548.026 942.670, 523.896 911.468, 534.445 "
fill = "none" stroke = "black"/>
</g>
<g>
<polygon points = "500.964, 199.816 548.091, 187.058 523.721, 134.253 477.762, 167.005 498.462, 199.341 "
fill = "none" stroke = "black"/>
</g>
<g>
<polygon points = "952.937, 401.031 917.220, 364.131 898.174, 376.311 872.318, 423.555 930.126, 448.597 "
fill = "none" stroke = "black"/>
</g>
<g>
<polygon points = "738.155, 448.457 727.028, 450.450 704.855, 491.140 742.617, 504.079 747.096, 499.486 "
fill = "none" stroke = "black"/>
</g>
<g>
<polygon points = "462.963, 821.429 472.646, 860.069 508.665, 836.921 509.484, 815.163 "
fill = "none" stroke = "black"/>
</g>
<g>
<polygon points = "978.355, 390.255 952.937, 401.031 930.126, 448.597 931.953, 451.931 949.604, 469.993 1000.000, 463.393 1000.000, 397.391 "
fill = "none" stroke = "black"/>
</g>
<g>
<polygon points = "299.197, 465.035 305.472, 449.138 258.597, 418.142 250.438, 483.998 267.950, 492.619 "
fill = "none" stroke = "black"/>
</g>
<g>
<polygon points = "714.983, 313.701 701.365, 313.309 682.735, 335.457 679.247, 345.621 715.097, 376.586 717.227, 376.232 737.314, 341.154 "
fill = "none" stroke = "black"/>
</g>
<g>
<polygon points = "100.442, 491.283 101.532, 489.238 109.532, 415.461 105.073, 403.214 90.311, 415.443 79.190, 434.471 85.073, 472.640 "
fill = "none" stroke = "black"/>
</g>
<g>
<polygon points = "617.626, 300.143 578.079, 312.756 592.408, 357.706 609.997, 361.904 639.317, 350.685 643.405, 343.726 642.877, 339.824 640.859, 331.666 "
fill = "none" stroke = "black"/>
</g>
<g>
<polygon points = "517.531, 397.517 455.662, 411.207 448.477, 433.857 488.107, 463.017 501.537, 467.901 506.315, 464.364 518.975, 452.272 "
fill = "none" stroke = "black"/>
</g>
<g>
<polygon points = "635.315, 517.528 575.833, 520.689 569.381, 533.198 556.029, 581.122 559.161, 602.316 "
fill = "none" stroke = "black"/>
</g>
<g>
<polygon points = "131.241, 543.968 141.340, 549.437 160.384, 552.137 200.788, 505.941 201.405, 503.633 184.700, 464.198 177.434, 463.936 108.146, 505.827 "
fill = "none" stroke = "black"/>
</g>
<g>
<polygon points = "744.459, 968.101 739.082, 939.105 692.091, 957.286 708.261, 997.926 "
fill = "none" stroke = "black"/>
</g>
<g>
<polygon points = "51.012, 500.064 57.749, 475.377 0.000, 461.425 0.000, 498.895 "
fill = "none" stroke = "black"/>
</g>
<g>
<polygon points = "374.855, 994.132 345.913, 936.969 290.376, 964.236 282.751, 1000.000 373.400, 1000.000 "
fill = "none" stroke = "black"/>
</g>
<g>
<polygon points = "247.179, 911.851 268.675, 884.403 228.535, 873.027 "
fill = "none" stroke = "black"/>
</g>
<g>
<polygon points = "424.365, 442.824 403.997, 429.203 344.784, 434.146 339.499, 444.664 363.674, 464.699 412.637, 463.893 "
fill = "none" stroke = "black"/>
</g>
<g>
<polygon points = "592.408, 357.706 564.925, 380.591 594.359, 435.657 622.180, 439.376 609.997, 361.904 "
fill = "none" stroke = "black"/>
</g>
<g>
<polygon points = "950.710, 160.529 909.415, 165.566 899.653, 174.228 930.481, 252.397 1000.000, 193.505 1000.000, 187.684 "
fill = "none" stroke = "black"/>
</g>
<g>
<polygon points = "479.641, 544.415 496.705, 542.907 527.232, 520.119 529.334, 517.412 513.828, 489.419 503.091, 480.026 477.624, 535.369 "
fill = "none" stroke = "black"/>
</g>
<g>
<polygon points = "617.626, 300.143 640.859, 331.666 664.440, 303.976 627.658, 277.337 627.652, 277.339 "
fill = "none" stroke = "black"/>
</g>
<g>
<polygon points = "390.864, 529.724 412.291, 537.505 432.095, 504.909 412.552, 484.296 393.817, 498.124 "
fill = "none" stroke = "black"/>
</g>
<g>
<polygon points = "471.289, 334.778 473.839, 332.838 506.666, 298.915 491.946, 271.229 473.836, 261.814 463.534, 272.439 449.192, 301.976 449.359, 303.294 461.508, 335.259 "
fill = "none" stroke = "black"/>
</g>
<g>
<polygon points = "560.370, 750.867 521.806, 703.613 506.615, 710.031 519.726, 744.920 "
fill = "none" stroke = "black"/>
</g>
<g>
<polygon points = "601.705, 771.439 649.732, 737.295 648.598, 712.309 640.589, 690.847 628.823, 678.925 572.213, 678.880 572.006, 753.484 573.015, 755.065 586.201, 770.759 "
fill = "none" stroke = "black"/>
</g>
<g>
<polygon points = "727.028, 450.450 703.335, 445.241 696.210, 446.406 684.260, 496.124 704.855, 491.140 "
fill = "none" stroke = "black"/>
</g>
<g>
<polygon points = "926.717, 767.769 957.724, 786.731 968.896, 778.410 956.039, 760.922 923.302, 763.512 "
fill = "none" stroke = "black"/>
</g>
<g>
<polygon points = "424.365, 442.824 447.001, 434.689 448.477, 433.857 455.662, 411.207 443.557, 374.904 423.821, 375.361 398.117, 412.078 403.997, 429.203 "
fill = "none" stroke = "black"/>
</g>
<g>
<polygon points = "758.255, 51.316 734.244, 112.308 734.693, 116.401 762.405, 138.827 801.404, 86.372 793.760, 69.010 "
fill = "none" stroke = "black"/>
</g>
<g>
<polygon points = "675.027, 199.570 693.693, 169.547 689.255, 153.383 654.925, 163.626 649.052, 179.573 657.941, 208.962 "
fill = "none" stroke = "black"/>
</g>
<g>
<polygon points = "572.006, 753.484 560.370, 750.867 519.726, 744.920 496.654, 768.925 507.857, 785.910 573.015, 755.065 "
fill = "none" stroke = "black"/>
</g>
<g>
<polygon points = "149.142, 76.830 139.706, 73.625 111.673, 84.209 158.864, 126.716 "
fill = "none" stroke = "black"/>
</g>
<g>
<polygon points = "264.491, 348.280 261.571, 345.022 233.215, 320.297 217.286, 322.332 250.501, 385.631 "
fill = "none" stroke = "black"/>
</g>
<g>
<polygon points = "0.000, 6.398 0.000, 92.607 50.085, 58.167 "
fill = "none" stroke = "black"/>
</g>
<g>
<polygon points = "266.738, 159.648 319.762, 137.263 325.339, 115.251 264.966, 113.355 261.901, 150.289 "
fill = "none" stroke = "black"/>
</g>
<g>
<polygon points = "238.096, 62.928 239.036, 65.012 323.669, 69.060 333.044, 0.000 328.312, 0.000 "
fill = "none" stroke = "black"/>
</g>
<g>
<polygon points = "470.153, 877.706 473.089, 891.282 494.499, 896.819 528.477, 875.996 522.079, 861.375 519.585, 860.064 471.930, 873.786 "
fill = "none" stroke = "black"/>
</g>
<g>
<polygon points = "449.192, 301.976 396.827, 256.739 373.193, 276.889 373.161, 282.158 432.879, 304.355 449.359, 303.294 "
fill = "none" stroke = "black"/>
</g>
<g>
<polygon points = "467.992, 902.128 473.089, 891.282 470.153, 877.706 443.830, 871.524 390.253, 887.143 423.447, 930.221 "
fill = "none" stroke = "black"/>
</g>
<g>
<polygon points = "744.284, 921.531 806.798, 911.080 788.708, 867.350 787.050, 865.703 769.858, 864.764 747.474, 873.013 733.530, 896.494 "
fill = "none" stroke = "black"/>
</g>
<g>
<polygon points = "446.055, 677.595 465.076, 645.148 438.614, 625.439 417.057, 629.329 408.649, 640.134 "
fill = "none" stroke = "black"/>
</g>
<g>
<polygon points = "322.387, 204.095 319.777, 200.214 280.099, 206.016 295.959, 280.082 332.351, 258.365 "
fill = "none" stroke = "black"/>
</g>
<g>
<polygon points = "355.863, 706.954 380.566, 686.345 381.777, 657.047 340.878, 623.084 310.368, 629.866 303.553, 639.664 284.894, 677.328 290.472, 701.370 305.025, 727.618 "
fill = "none" stroke = "black"/>
</g>
<g>
<polygon points = "44.002, 448.039 79.190, 434.471 90.311, 415.443 0.000, 412.433 0.000, 445.869 "
fill = "none" stroke = "black"/>
</g>
<g>
<polygon points = "496.654, 768.925 451.114, 761.748 446.517, 771.871 458.579, 818.168 462.963, 821.429 509.484, 815.163 515.865, 808.984 507.857, 785.910 "
fill = "none" stroke = "black"/>
</g>
<g>
<polygon points = "78.016, 55.577 117.640, 39.108 121.915, 0.000 90.238, 0.000 "
fill = "none" stroke = "black"/>
</g>
<g>
<polygon points = "818.996, 515.534 833.174, 547.146 892.859, 527.797 882.953, 496.519 865.552, 485.273 823.694, 507.274 "
fill = "none" stroke = "black"/>
</g>
<g>
<polygon points = "322.387, 204.095 409.076, 222.831 412.510, 218.456 406.770, 197.585 397.281, 185.999 364.583, 177.728 323.097, 190.816 319.777, 200.214 "
fill = "none" stroke = "black"/>
</g>
<g>
<polygon points = "158.621, 890.574 193.397, 869.705 177.902, 813.059 155.406, 814.090 147.961, 881.750 "
fill = "none" stroke = "black"/>
</g>
<g>
<polygon points = "32.952, 835.356 26.640, 847.555 50.095, 866.968 67.675, 849.333 46.377, 824.384 "
fill = "none" stroke = "black"/>
</g>
<g>
<polygon points = "438.614, 625.439 465.076, 645.148 487.404, 645.304 485.821, 630.697 455.467, 597.940 "
fill = "none" stroke = "black"/>
</g>
<g>
<polygon points = "834.907, 582.628 904.239, 635.188 910.996, 604.004 905.619, 564.822 829.468, 575.570 "
fill = "none" stroke = "black"/>
</g>
<g>
<polygon points = "409.269, 372.041 423.821, 375.361 443.557, 374.904 459.277, 337.523 370.026, 324.346 368.099, 327.424 "
fill = "none" stroke = "black"/>
</g>
<g>
<polygon points = "345.913, 936.969 342.341, 896.936 315.564, 895.941 285.025, 944.874 290.376, 964.236 "
fill = "none" stroke = "black"/>
</g>
<g>
<polygon points = "807.320, 136.312 818.363, 134.320 839.779, 108.662 844.013, 80.134 817.070, 84.468 "
fill = "none" stroke = "black"/>
</g>
<g>
<polygon points = "902.043, 51.796 884.511, 65.242 902.523, 151.466 909.415, 165.566 950.710, 160.529 961.297, 93.580 "
fill = "none" stroke = "black"/>
</g>
<g>
<polygon points = "733.292, 771.082 730.742, 772.836 769.858, 864.764 787.050, 865.703 808.544, 794.039 813.505, 771.895 784.774, 752.205 "
fill = "none" stroke = "black"/>
</g>
<g>
<polygon points = "624.048, 971.071 600.023, 925.051 569.402, 913.658 548.296, 929.316 548.080, 974.037 573.782, 1000.000 617.100, 1000.000 "
fill = "none" stroke = "black"/>
</g>
</svg>
